<svg version="1.1" xmlns="http://www.w3.org/2000/svg" viewBox="0 0 1440 1700" width="1440" height="1700">
  <!-- svg-source:excalidraw -->
  
  <defs>
    <style>
      @font-face {
        font-family: "Virgil";
        src: url("https://excalidraw.com/Virgil.woff2");
      }
      @font-face {
        font-family: "Cascadia";
        src: url("https://excalidraw.com/Cascadia.woff2");
      }
    </style>
  </defs>
  <g transform="translate(310 629.3962495531048) rotate(0 32.558823529411825 19.85294117647061)"><text x="0" y="27.705882352941195" font-family="Virgil, Segoe UI Emoji" font-size="31.764705882352942px" fill="#000000" text-anchor="start" style="white-space: pre;" direction="ltr">core</text></g><g stroke-linecap="round" transform="translate(170 709.3962495531048) rotate(0 180 60.000000000000114)"><path d="M0 0 C0 0, 0 0, 0 0 M0 0 C0 0, 0 0, 0 0 M-0.44 7.09 C0.94 4.71, 1.75 4.72, 4.47 -0.49 M0.22 6.84 C0.73 5.55, 2.26 3.39, 4.69 0.4 M2.87 14.7 C1.64 8.06, 5.86 1.24, 13.44 2.37 M-1.16 12.86 C3.04 6.36, 7.07 2.1, 10.51 -0.49 M-0.05 20.11 C4.66 11.97, 8.61 11.73, 14.36 2.97 M0.63 17.13 C3.44 13.23, 7.19 10.08, 16.22 -0.45 M0.03 26.39 C2.21 15.49, 13.7 9.5, 23.05 1.59 M0.33 22.94 C7.64 14.13, 16.14 5.93, 22.66 0.77 M-2.4 26.87 C4.44 19.33, 15.64 10.29, 26.19 -2.16 M1.31 30.24 C8.67 21.35, 15.92 14.32, 25.18 -0.14 M-1.63 36.49 C10.48 26.76, 18.33 20.24, 31.29 3.28 M-1.96 38.46 C5.16 27.43, 13.64 23.28, 30.08 1.07 M2.94 45.84 C10.18 31.38, 15.47 20.14, 39.15 -0.94 M1.3 41.46 C6.22 35.1, 14.91 26.73, 36.82 -1.39 M-2.16 46.33 C18.19 26.93, 28.62 11.83, 42.07 0.95 M-0.33 50.33 C10.55 35.5, 20.46 26.26, 42.82 -0.86 M1.15 55.96 C14.69 39.4, 32.39 20.21, 43.67 0.29 M-0.31 52.62 C20.16 32.48, 36.46 12.83, 45.62 0.28 M2.22 60.34 C11.81 43.9, 32.69 24.91, 57.08 -2.96 M0.04 62.8 C16.65 40.36, 34.37 21.95, 51.72 1.08 M-0.72 70.42 C16.54 46.15, 34.51 32.96, 60.72 -3.28 M-0.33 65.57 C13.75 52.04, 25.24 35.9, 58.78 0.58 M-1.54 75.71 C27.17 47.02, 47.49 16.84, 60.52 3.48 M-0.66 74.57 C19.49 49.54, 40.93 27.53, 64.38 0.24 M-3.16 77.62 C25.16 48.82, 53.67 19.28, 69.72 1.03 M-0.86 79.16 C14.47 61.6, 30.53 40.26, 68.27 -1.51 M4.01 83.11 C21.57 55.91, 44.4 32.07, 75.08 1.69 M-1.44 83.62 C19.85 63.07, 36.14 42.08, 73.14 1.21 M-2.14 93.76 C20.95 66.86, 42.58 33.49, 80.63 3.39 M-1.22 89.73 C24.41 62.87, 48.71 35.76, 78.81 0.24 M2.15 99.47 C32.61 61.64, 66.82 16.89, 81.96 -1.38 M-1.26 95.94 C20.46 71.99, 44.33 47.14, 83.07 -0.15 M-2.46 103.76 C29.37 70.47, 58.41 30.83, 93.9 3.49 M0.68 104.14 C27.8 71.43, 58.17 39.47, 91.86 -0.71 M0.64 108.97 C33.59 76.56, 67.78 35.2, 92.85 2.68 M-0.33 110.47 C29.1 76.93, 59.13 40.02, 96.04 -0.76 M-2.42 118.05 C24.88 92.87, 47.89 63.44, 100.46 2.5 M-0.32 116.48 C25.92 88.69, 48.56 62.53, 101.63 0.36 M4.44 122.79 C35.31 78.2, 65.33 43.27, 109.94 -0.18 M0.55 122.95 C34.2 83.15, 64.34 46.06, 106.61 -2.26 M4.08 117.78 C27.45 91.26, 48 73.23, 113.77 3.11 M5.29 121.31 C39.25 87.29, 65.81 51.7, 111.1 -0.56 M10.15 119.04 C49.23 79.76, 79.01 42.5, 117.29 2.2 M10.55 121.78 C42.08 86.92, 73.63 51.85, 117.49 1.7 M14.42 117.88 C45.54 96.58, 65.18 64.53, 121.76 1.49 M16.51 120.73 C59.6 71.97, 98.12 26.01, 119.97 -0.26 M25.9 123.22 C48.22 93.59, 70.56 70.24, 123.38 -2.74 M20.53 120.51 C54.44 86.49, 83.8 49.64, 126.06 -1.53 M29.19 122.56 C54.78 96.02, 71.29 66.33, 134.89 3.33 M25.86 119.88 C55.58 87.82, 85.36 53.81, 132.71 -0.26 M36.13 119.01 C56.38 85.66, 86.98 61.22, 141.27 0.17 M31.95 120.6 C63.81 81.51, 94.84 45.86, 136.52 0.88 M36.11 124.26 C56.9 89.77, 88.13 69.18, 146.09 -0.2 M39.17 121.85 C77.54 76.62, 116.04 29.33, 142.53 1.15 M39.78 123.6 C83.39 73.78, 122.98 29.53, 151.15 2.87 M43.04 122.78 C71.65 92.13, 99.96 59.73, 146.45 0.29 M45.35 116.9 C74.5 93.72, 93.31 67.02, 154.82 -0.41 M47.03 120.99 C85.4 80.36, 120.37 36.11, 155.4 0.95 M50.3 123.65 C89.27 84.3, 130.56 41.41, 155.72 -1.21 M52.76 119.03 C78.66 86.33, 108.64 54.68, 158.19 -0.71 M57.63 119.91 C95.19 76.03, 126.36 41.3, 167.02 -3.13 M60.78 118.9 C97.97 73.71, 138.47 26.48, 166.04 -0.63 M63.63 123.35 C96.88 83.45, 130.48 42.15, 172.16 -1.15 M64.82 120.56 C87.78 93.39, 111.69 68.15, 170.84 -0.26 M72.13 122.22 C93.43 89.47, 114.63 62.07, 171.13 3.32 M68.51 120.42 C91.16 96.22, 113.65 70.46, 173.91 -0.12 M74.22 120.38 C106.76 78.01, 144.14 37.22, 176.18 -0.51 M75.68 121.85 C112.52 74.28, 148.53 33.45, 180.23 -1.27 M78.54 122.26 C118.15 78.79, 147.88 46.19, 186.1 0.13 M79.07 121.66 C121.58 75.01, 157.95 29.56, 187.22 1.19 M83.01 121.92 C116.12 87.08, 140.52 56.03, 189.97 -1.37 M86.57 120.62 C113.82 87.56, 143.07 58.49, 190.95 0.61 M89.07 119.97 C123.19 84.95, 156.68 42.82, 197.38 1.96 M90.03 121.95 C129.62 78.5, 166.31 35.9, 194.94 1.29 M97.45 120.65 C125.69 89.59, 149.08 59.15, 202.23 3.71 M95.45 121.84 C126.82 87.18, 157.52 50.49, 200.35 0.98 M98.41 116.77 C135.01 85.37, 166.2 48.75, 204.91 1.01 M103.75 119.91 C141.9 75.3, 179.88 29.68, 206.78 1.39 M107.49 118.75 C147.54 72.86, 182.54 27, 208.14 -0.35 M105.03 121.74 C147.1 71.94, 188.54 26.33, 210.5 -1.32 M115.1 124.34 C139.46 90.17, 168.08 56.89, 215.14 -1.04 M110.65 122.13 C140.12 91.45, 165.19 61.19, 217.21 -2.04 M117.57 119.89 C143.75 89.05, 168.6 56.77, 225.41 -3.11 M118.77 119.79 C138.63 89.75, 164.3 64.73, 224.26 -0.19 M124.15 121.61 C139.96 91.81, 166.91 70.61, 225 -1.03 M123.88 120.19 C157.54 78.88, 190.93 39.19, 229.44 -1.26 M130.63 121.27 C157.24 85.7, 187.68 55.89, 230.23 -0.65 M128.9 122.71 C151.79 92.31, 179.38 60.05, 233.21 1.72 M131.09 123.26 C170.83 77.14, 207.64 34.42, 237.3 -1.51 M131.39 119.21 C173.05 72.98, 216.56 28.75, 238.79 -0.56 M140.12 121.55 C176.12 78.98, 214.39 44.35, 245.3 -3.54 M140.37 120.48 C169.03 83.72, 197.53 52.09, 245.7 1.01 M140.62 120.72 C186.65 72.48, 228.52 24.06, 247.28 2.19 M142.51 122.78 C172.37 87.98, 202.14 53.4, 247.28 0.78 M145.99 120.92 C179 85.45, 209.73 46.02, 251.81 3.16 M150.9 122.31 C180.87 85.29, 211.65 50.21, 254.8 1.53 M155.93 122.91 C178.81 92.24, 205.2 67.13, 262.75 2.49 M155.32 121.74 C180.91 86.99, 212.75 54.61, 259.71 0.99 M162.67 121.05 C191.32 85.71, 222.5 52.09, 261.46 3.87 M158.96 120.68 C183.42 94.5, 204.24 72.5, 266.37 -1.64 M162.73 124.28 C206.7 71, 248.35 26.26, 266.63 0.59 M164.68 122.2 C202.39 78.01, 243.06 31.14, 270.31 0.79 M171.13 117.13 C204.73 84.88, 234.63 49.93, 276.44 0.53 M171.76 119.31 C206.68 80.7, 241.79 37.11, 274.99 -2.13 M177.2 120.75 C210.37 88.25, 235.31 49.35, 280.38 -0.84 M174.17 121.5 C217.12 76.94, 255.37 30.36, 282.03 0.16 M182.79 121.84 C212.71 83.87, 241.81 50.15, 289.45 -3.45 M181.27 121.18 C215.89 78.86, 251.1 36.79, 288 1.65 M190.04 117.74 C218.88 79.07, 257.3 38.65, 291.95 2.38 M188.12 120.24 C211.78 92.51, 235.48 64.83, 290.6 -1.69 M191.62 117.36 C223.22 75.98, 266.19 35.24, 299.69 -3.12 M192.19 120.5 C213.54 91.8, 238.25 64.4, 297.49 -1.46 M198.46 122.2 C235.31 75, 280.55 28.75, 303.77 -0.08 M195.64 122.26 C221.48 93.91, 243.59 67.78, 300.48 1.71 M206.04 119.36 C239.45 79.44, 276.02 40.22, 304.84 -0.06 M202.01 118.75 C229.34 94.77, 249.62 69.59, 308.3 0.64 M206.13 118.54 C242.08 75.98, 278.53 34.13, 308.8 -1.02 M206.55 122.68 C225.57 94.77, 250.27 69.77, 312.87 0.1 M217.01 121.02 C250.4 75.71, 290.35 34.69, 317.1 -2.34 M212.92 120.66 C234.27 91.53, 259.93 63.19, 318.02 -0.69 M215.26 124.7 C260.28 77.96, 296.35 36.59, 322.48 0.22 M219.45 119.82 C242.78 93.39, 266.52 62.31, 321.76 -1.56 M221.32 117.79 C247.57 91.74, 268.81 69.32, 331.18 -0.53 M223.24 122.95 C263.95 75.32, 305.82 29.61, 329 1.13 M226.55 120.11 C266.18 73.22, 309.21 33.9, 334.75 -2.16 M229.68 119.3 C258.1 84.17, 293.66 45.65, 333.84 0.96 M232.23 120.32 C261.52 92.83, 284.58 64.61, 340.26 0.31 M234 119.33 C269.78 82.07, 305.05 37.67, 340.31 -0.04 M239.18 117.69 C266.42 90.4, 289.62 63.81, 342.06 3.5 M241.33 121.95 C277.28 74.54, 317.8 33.51, 344.59 -0.88 M243.51 119.06 C274.28 82.04, 303.49 54.56, 351.38 -2.65 M245 121.03 C282.35 77.82, 318.2 37.67, 351.15 1.65 M250.86 123.88 C289.1 78.05, 322.5 30.98, 355.35 -1.61 M251.24 119.88 C285.11 80.04, 320.2 40.29, 354.23 -0.34 M256.13 121.19 C278.55 94.56, 306.36 68.25, 364.05 3.01 M253.46 121.77 C276.02 91.89, 300.04 67.66, 359.41 1.03 M257.77 122.61 C284.94 95.16, 313 60.28, 362.83 3.22 M261 120.43 C291.4 86.61, 318.7 56.86, 362.46 6.58 M269.52 119.38 C297.05 85.42, 329.64 38.82, 363.82 13.56 M265.35 122.53 C295.25 86.7, 322.64 55.22, 359.29 10.54 M270.62 123.3 C290.32 94.52, 317.38 75.52, 363.78 18.94 M272.94 122.2 C294.43 94.46, 317.37 70.95, 358.35 17.86 M273.63 123.81 C297.86 99.64, 317.58 77.33, 364.37 25.85 M275.38 119.53 C299.74 90.11, 328.74 59.12, 359.37 24.95 M282.6 120.89 C301.59 96.97, 322.13 71.9, 363.2 31.66 M282.17 119.04 C302.84 95.87, 323.55 73.89, 358.92 30.42 M288.9 122.16 C305.62 99.68, 316.76 82.87, 359.41 34.31 M287.01 120.24 C312.12 89.82, 338.47 62.31, 362.48 38.35 M293.4 119.81 C315.8 91.21, 340.29 66.41, 357.39 45.34 M292.51 120.05 C314.35 100.14, 332.67 79.78, 358.73 44.75 M294.28 119.62 C321.64 99.26, 343.45 74.65, 356.46 51.62 M296.45 119.39 C313.37 103.55, 327.56 83.28, 359.57 48.84 M301.23 117.98 C316.01 102.44, 337.92 82.88, 357.8 56.63 M304.56 121.58 C316.48 109.07, 329.39 91.89, 361.75 55.81 M307.22 122.86 C317.13 107.51, 332.79 89.12, 363.54 57.71 M308.69 118.94 C320.03 107.6, 333.24 93.35, 360.29 59.52 M310.77 122.83 C334.61 103.3, 349.63 77.24, 358.36 63.74 M315.65 119.21 C330.98 101.27, 348.4 79.51, 360.68 65.82 M319.66 124.06 C326.12 108.45, 339.18 99.13, 361.19 76.25 M317.42 120.11 C329.88 106.29, 342.52 94.16, 361.07 74.99 M325.22 119.3 C335.92 106.99, 349.99 90.77, 358.86 83.09 M323.88 119.8 C329.91 112.55, 340.09 102.14, 360.35 81.02 M330.05 116.91 C340.14 110.84, 343.24 105.06, 361.1 83.68 M329.11 119.4 C340.2 110, 350.15 97.19, 359.74 86.35 M337.62 118.57 C345.78 108.61, 351.35 102.75, 359.57 90.34 M335.44 122.21 C344.01 109.38, 350.7 100.8, 360.27 92.62 M343.32 120.57 C342.06 118.71, 352.62 114.3, 357.47 97.93 M338.99 120.5 C344.17 116.71, 348.67 111.31, 358.9 95.94 M341.48 123.06 C351.14 113.37, 357.09 114.15, 357.28 104.94 M343.22 122.26 C351.14 114.96, 355.19 109.98, 358.76 105.35 M348.1 122.85 C354.93 115.62, 355.76 110.34, 358.84 108.1 M350.95 121.92 C354.95 117.61, 355.26 114.05, 360.87 110.14 M356.86 121.77 C358.6 120.64, 359.99 118.71, 361.63 115.58 M355.49 121.2 C356.94 118.91, 359.51 117.55, 360.09 115.35" stroke="#228be6" stroke-width="0.5" fill="none"></path><path d="M2.27 -1.94 C128.7 0.87, 257.88 -0.52, 358.91 -0.89 M0.46 -0.38 C120.91 0.91, 241.51 0.26, 360.61 0.65 M363.19 -3.99 C356.86 26.08, 362.31 51.32, 362.94 117.63 M359.36 -1.69 C357.86 41.29, 357.89 82.43, 360.34 120.87 M361.92 119.41 C222.73 124.14, 86.41 122.94, 0.45 121.68 M360.98 119.62 C260 119.6, 162.46 119.85, 1.17 118.89 M-0.18 116.66 C4.37 71.75, 2.8 28.81, -1.57 0.61 M1.01 119.68 C1.86 73.39, -0.98 31.82, 1.9 0.23" stroke="#000000" stroke-width="1" fill="none"></path></g><g transform="translate(310 749.396249553105) rotate(0 32.5 20)"><text x="0" y="28" font-family="Virgil, Segoe UI Emoji" font-size="31.76470588235294px" fill="#000000" text-anchor="start" style="white-space: pre;" direction="ltr">logic</text></g><g stroke-linecap="round" transform="translate(170 1149.396249553105) rotate(0 180 60)"><path d="M0 0 C0 0, 0 0, 0 0 M0 0 C0 0, 0 0, 0 0 M-1.83 5.73 C2.08 5.94, 3.63 3.25, 4.26 1.04 M0.52 5.74 C1.37 4.73, 2.08 3.5, 4.7 0.46 M-1.38 10.97 C3.16 9.42, 7.41 4.98, 8.67 0.93 M1.16 12.22 C3.68 9.95, 6.62 4.83, 10.22 -1.03 M3.22 15.96 C3.96 13.76, 9.1 13.5, 16.38 -1.7 M-2.07 16.83 C4.23 11.22, 8.39 6.42, 15.74 1.81 M0.23 27.82 C10.91 10.51, 13.69 3.98, 17.63 1.89 M1.7 22.89 C4.82 17.72, 8.17 11.3, 19.74 1.49 M2.78 27.47 C7.55 22.16, 20.97 8.44, 24.74 3.28 M1.58 30.18 C6.32 24.57, 11.27 17.2, 27.52 0.16 M-4.12 37.76 C16.01 26.58, 25.01 8.24, 29.76 3.73 M-2.19 35.98 C6.58 26.22, 17.8 15.79, 33.07 0.53 M-2.82 46.44 C12.21 35.64, 17.45 25.5, 37.7 -2.58 M0.6 40.88 C11.59 27.22, 26.44 14.87, 38.21 -0.89 M-2.07 49.45 C8.72 41.09, 20.15 25.65, 38.77 -1.6 M0.65 50.51 C10.28 32.98, 23.96 18.57, 42.33 -0.31 M-1.39 54.59 C8.4 43.22, 21.11 32.73, 50.17 -0.33 M2.22 53.78 C10.19 44.2, 20.95 31.97, 45.65 -1.12 M2.66 64.59 C10.97 45.52, 20.26 34.56, 56.32 0.09 M-1.58 60.43 C14.02 46.28, 26.48 32.63, 54.98 -0.44 M-3.91 64.85 C17.61 52.26, 26.67 35.75, 58.6 3.47 M0.26 67.22 C21.2 44.94, 43.11 19.02, 58.95 0.43 M0.5 74.64 C13.69 55.06, 33.47 29.09, 63.6 -2.5 M-0.78 71.72 C22.35 51.76, 40.46 25.62, 65.76 1.47 M-1.89 78.42 C21.76 47.06, 51.05 19.78, 68.9 0.78 M1.75 78.03 C17.18 61.68, 30.47 46.08, 70.44 1.48 M-0.63 85.53 C20.04 58.02, 41.1 40.63, 75.29 1.82 M-1.62 83.08 C24.9 57.08, 46.97 29.17, 72.63 -0.47 M-3.31 89.24 C21.42 68.78, 38.53 49.07, 80.52 -1.97 M-1 90.06 C15.34 71.65, 34.84 49.91, 79.74 0.5 M0.05 94.46 C22.02 73.67, 37.39 50.17, 83.56 -1.26 M-2.13 98.74 C30.27 64.96, 58.98 31.1, 84.81 0.56 M2.01 105.01 C18.52 79.51, 46.3 55.27, 86.37 0.18 M0.24 103.14 C19.16 78.36, 42.19 54.48, 89.69 0.69 M-1.22 110.87 C29.37 73.11, 66.39 36.12, 98.11 -3.54 M0.83 109.4 C23.8 80.43, 48.55 53.27, 94.79 0.16 M1.76 115.92 C24.51 88.86, 46 69.31, 96.9 2.65 M0.94 113.87 C39.34 71.54, 80.47 28.42, 102.38 2.03 M0 120.21 C33.65 77.58, 67.61 47.1, 106.09 1.68 M0.36 120.02 C22.52 96.48, 40.95 72.71, 106.28 -1.34 M7.02 119.89 C44.33 73.15, 83.15 27.6, 108.02 -0.58 M5.73 120.79 C28.38 91.51, 52.64 62.57, 111.16 1.22 M10.81 119.85 C40.42 87.89, 71.48 46.1, 119.55 4.35 M9.99 121.76 C51.4 80.62, 87.49 33.95, 117.59 1.92 M15.15 121.61 C55.15 78.47, 87.13 42.32, 125.17 -1.1 M15.27 119.51 C56.14 76.73, 93.73 31.14, 120.63 -0.26 M20.81 119.57 C62.62 75.86, 96.51 33.62, 129.98 -1.35 M23.49 120.41 C54.69 82.4, 91.2 43.49, 128.27 2.25 M29.75 120.06 C55.73 89.56, 76.18 64.14, 131.28 0.07 M26.19 122.13 C52.79 97.72, 72.7 72.63, 130.63 -0.2 M30.92 124.3 C70.81 82.54, 98.12 40.47, 136.38 3.54 M31.7 119.17 C74.16 78.12, 112.66 32.95, 139.13 -0.98 M36.48 123.43 C59.48 91.2, 86.28 65.43, 142.78 0.34 M38.96 120.26 C60.37 92.02, 85.46 65.29, 144.28 0.35 M43.57 121.49 C61.42 92.6, 90.85 69.25, 147.95 3.7 M44.71 122 C81.65 75.89, 120.57 29.35, 146.9 -0.45 M46.54 122.43 C82.84 83.8, 120.49 38.68, 153.6 3.69 M49.3 122.24 C84.49 81.66, 120.5 39.82, 151.9 1.13 M54.7 121.09 C93.51 74.01, 133.91 30.08, 159.37 -1.67 M51.88 121.64 C80.42 91.25, 103.01 62.64, 159.54 -0.06 M56.6 122.24 C82.55 87.47, 108.29 64.96, 167.16 -3.46 M60.19 121.15 C86.56 87.84, 117 53.69, 163.11 -1.41 M61.73 123.54 C95.68 83, 132.16 46.44, 166.81 1.13 M65.8 119.54 C101.31 79.07, 137.58 37.25, 168.27 1.02 M72.84 118.57 C104 77.96, 139.8 40.86, 172.4 -4.16 M69.85 118.84 C91.72 95.3, 115.82 67.11, 174.74 -2.06 M71.6 119.79 C107.49 83.36, 141.42 41.34, 183.96 0.3 M74.32 121.91 C103.28 85.67, 137.92 49.12, 179.58 0.39 M78.94 121.6 C121.42 75.25, 167.1 24.21, 183.75 1.04 M79.76 121.88 C120.37 72.02, 161.02 26.97, 186.9 1.16 M84.73 123.28 C118.48 90.64, 145.61 50.34, 193.99 -1.47 M84.54 119.72 C118.03 85.33, 149.36 49.2, 191.18 0.38 M92.08 124.04 C126.71 82.41, 160.96 36.3, 193.13 2.09 M90.63 121.64 C112.2 90.2, 139.89 64.46, 194.94 -1.05 M95.05 121.96 C137.53 71.69, 178.02 24.55, 197.59 -2.99 M94.81 120.68 C125.7 87.08, 155.61 54.96, 200.04 0.09 M98.94 117.07 C127.88 86.79, 157.35 55.05, 209.98 3.43 M102.44 122.18 C125.63 92.75, 151.38 64.22, 205.44 -1.21 M106 118.28 C150.68 74.06, 187.18 24.61, 212.93 3.44 M106.71 121.27 C134.67 88.43, 165.56 55.65, 210.4 -0.64 M111.04 123.15 C133.79 91.49, 157.28 62.54, 221.23 0 M113.75 121.12 C150.92 74.5, 187.47 30.44, 216.26 0.88 M114.49 121.17 C145.61 92.19, 172.31 62.43, 219.69 0.01 M117.11 122.69 C146.11 85.27, 179.81 50.56, 221.72 -1.23 M119.38 120.97 C151.67 94.54, 171.78 64.77, 231.3 1.25 M124.35 122.52 C161.04 81.52, 197.04 39.01, 228.5 -1.81 M126.97 122.09 C155 88.62, 183.69 58.22, 231.05 -0.57 M130.09 118.91 C161.25 85.94, 194.97 46.84, 232.71 -0.34 M130.48 121.97 C164.31 82.45, 199.74 52.46, 237.47 -0.11 M131.3 121.48 C174.38 75.55, 212.87 28.05, 237.85 1.2 M135.36 118.97 C172.67 89.82, 194.82 56.98, 245.7 -3.12 M137.01 120.64 C174.12 81.6, 208.38 41.99, 245.37 0.13 M145.02 119.35 C173.05 81.47, 207.03 44.2, 248.48 0.84 M143.59 121.1 C182.22 77.55, 218.96 34.25, 249.22 -1.15 M149.09 124.27 C184.47 85.51, 220.27 39.32, 255.81 2.06 M148.47 119.36 C173.14 95.8, 194.73 69.49, 252.91 -0.98 M157.18 120.81 C173.87 97.79, 197.74 67.59, 256.61 1.8 M153.43 121.22 C188.88 84.51, 220.63 46.35, 260.79 -0.88 M163.09 116.93 C198.53 77.63, 244.96 26.62, 263.06 -0.83 M158.3 119.27 C187.18 86.22, 215.06 52.14, 263.79 -0.09 M162.63 124.53 C195.09 92.53, 222.5 53.22, 272.28 -1.77 M164.28 122.41 C204.7 72.55, 241.36 27.49, 270.67 1.96 M173.8 122.4 C196.99 95.69, 218.92 64.47, 278.63 2.9 M171.62 121.33 C199.03 91.43, 225.29 61.54, 273.76 -0.86 M174.56 119.23 C205.33 87.34, 242.33 45.02, 283.43 0.06 M174.89 122.03 C210.91 81.57, 241.51 44.34, 280.21 0.11 M179.13 116.61 C217.14 76.81, 251.31 38.05, 283.21 2.45 M180.76 119.27 C215.07 88.53, 246.88 51, 285.76 1.81 M183.66 124.08 C218.05 79.31, 256.14 42.77, 287.48 -0.25 M187.22 122.16 C219.55 82.6, 250.13 49.86, 290 -0.99 M194.52 122.03 C218.27 90.29, 240.43 65.93, 298.96 1.51 M193.33 119.55 C218.28 90.55, 243.8 61.53, 298.04 1.75 M198.08 124.79 C224.2 89.58, 252.38 58.78, 299.36 -3.77 M198.48 121.64 C232.21 78.42, 272.79 32.4, 303.88 0.89 M204.91 119.58 C229.3 92.67, 255.24 53.77, 309.58 2.28 M204.16 121.38 C240.06 82.07, 270.4 44.85, 308.06 1.56 M211.53 121.55 C227.53 90.32, 249.4 68.83, 311.5 2.96 M209.16 120.06 C249.6 75.22, 289.1 27.35, 312.97 0.71 M212.71 120.72 C246.5 84.39, 281.13 44.06, 316.23 -2.55 M211.37 120.73 C236.92 95.14, 263.07 68.09, 316.55 0.57 M219.17 121.05 C250.97 82.35, 288.74 41.81, 325.84 -0.13 M218.98 121.77 C246.02 90.84, 276.22 57.18, 323.6 -1.82 M221.2 120.14 C259.36 82.22, 289.93 43.78, 329.61 2.22 M223.64 123.07 C252.81 85.33, 284.74 52.71, 327.48 -1.13 M225.69 120.5 C270.6 73.42, 308.2 30.29, 337.8 -2.58 M226.91 119.85 C263.51 78.02, 300.97 34.49, 333.37 1.78 M237.13 124.79 C277.84 73.48, 314.5 27.5, 337.89 -1.72 M234.87 120.35 C260.48 91.14, 283.54 63.66, 340.06 1.31 M237.26 123.59 C263.99 91.94, 283.11 71.94, 344.31 -3.45 M239.17 120.13 C260.24 94.16, 282.23 72.55, 343.14 0.7 M242.77 118.36 C260.28 94.49, 282.33 71.32, 346.09 -1.41 M244.27 119.55 C274.15 83.06, 307.45 44.53, 348.12 2.22 M253.57 124.5 C291.03 76.88, 327.17 31.02, 351.81 -3.3 M249.24 121.22 C277.59 91.08, 302.06 61.97, 356.99 0.93 M254.54 122.3 C274.07 88.13, 302.69 65.1, 362.7 4.32 M254.94 119.62 C291.81 83.36, 326.38 46.23, 358.7 -1.55 M259.79 123.95 C284.2 93.67, 303.66 72.87, 362.96 9.85 M261.83 122.46 C300.09 78.44, 332.7 37.26, 361.03 7.21 M266.39 124.56 C292.65 93.53, 320.23 60.22, 361.26 13.52 M265.2 120.28 C297.1 81.46, 332.7 42.85, 361.6 13.9 M274.61 121.12 C290.62 104.69, 305.58 78.24, 362.56 17.22 M272.92 119.92 C290.8 101.4, 308.05 79.24, 361.2 19.76 M273.73 119.57 C303.83 91.16, 332.34 55.68, 362.43 21.78 M276.68 122 C304.21 93.09, 328.71 60.74, 359.56 24.35 M278.21 121.71 C294.75 100.08, 313.42 79.38, 360.08 30.19 M281.74 122.45 C307.38 90.92, 334.01 64.93, 361.9 31.25 M289.5 124.28 C308.94 97.11, 330.17 74.41, 361.91 35.32 M286.2 122 C311.68 93.31, 339.04 64.88, 360.04 38.37 M292.26 121.91 C314.27 100.87, 331.68 82.4, 359.3 42.96 M290.75 119.65 C309.98 100.83, 329.58 77.03, 359.59 43.4 M296.12 122.14 C315.66 101.1, 331.94 74.36, 356.2 51.57 M297.88 122.23 C313.47 103.25, 326.49 87.97, 361.11 50.08 M299.94 124.42 C316.15 103.25, 335.45 79.72, 358.15 55.49 M301.68 121.84 C316.73 102.4, 334.5 84.66, 358.6 53.93 M309.53 119.1 C324.96 95.56, 351.57 78.57, 361.31 64.23 M307.06 121.41 C316.9 109.57, 327.69 98.9, 362.05 60.04 M309.94 122.44 C325.49 102.55, 340.99 87.92, 364.06 66.21 M315.5 120.13 C329.58 102.42, 344.2 83.04, 358.53 65.29 M315.16 119.6 C335.67 103.15, 347.89 83.26, 360.76 75.75 M320.33 119.01 C333.1 104, 346.29 90.92, 359.44 71.86 M324.43 123.65 C336.46 109.16, 349.72 89.45, 361.31 80.83 M324.44 122.35 C338.17 104.95, 353.95 89.73, 361.59 81.46 M331.94 118.58 C339.61 111.47, 341.33 99.05, 364.22 86.32 M331.55 119.24 C337.36 108.5, 348.57 99.09, 361.74 85.11 M338.44 119.02 C347.19 114.16, 357.52 98.28, 361.63 93.28 M335.3 121.84 C343.42 110.94, 349.3 103.04, 359.16 92.89 M340.28 117.49 C342.93 115.25, 346.56 115.24, 358.88 94.64 M341.8 119.07 C345.49 117.28, 350.92 109.88, 360.68 96.15 M342.45 119.72 C348.81 112.06, 351.76 108.38, 360.3 106.26 M344.13 122.43 C350.99 116.09, 354.08 109.72, 359.96 105.06 M353.14 123.23 C353.19 117.6, 356.55 113.67, 357.73 107.72 M351.26 120.38 C353.68 116.85, 356.59 112.75, 359 110.64 M356.75 121.34 C355.46 121.29, 357.19 118, 361.22 114.58 M355.95 121.78 C356.63 119.74, 358.64 118.63, 360.45 115.7" stroke="#228be6" stroke-width="0.5" fill="none"></path><path d="M1.69 0.54 C127.55 -2.46, 258.46 -1.54, 361.23 1.44 M0.33 0.87 C90.43 -0.29, 179.57 1.45, 359.52 0.56 M362.84 -3.47 C358.41 32.06, 363.57 56.54, 356.31 121.98 M360.28 1.46 C360.56 41.02, 359.99 79.16, 360.4 119.08 M361.99 122.16 C244.62 120.13, 132.24 122.31, -0.78 117.98 M360.19 118.79 C254.82 116.35, 151.65 115.4, -0.03 118.98 M3.81 118.74 C0.94 91.89, 0.93 61.62, -1.15 0.17 M0.51 120.24 C0.45 88.55, -0.84 55.43, -0.59 1.43" stroke="#000000" stroke-width="1" fill="none"></path></g><g transform="translate(310 1189.396249553105) rotate(0 49.5 20)"><text x="0" y="28" font-family="Virgil, Segoe UI Emoji" font-size="31.76470588235294px" fill="#000000" text-anchor="start" style="white-space: pre;" direction="ltr">domain</text></g><g stroke-linecap="round" transform="translate(170 929.396249553105) rotate(0 180 60)"><path d="M0 0 C0 0, 0 0, 0 0 M0 0 C0 0, 0 0, 0 0 M-1.27 5.26 C2.19 6.36, 1.28 3.62, 4.92 0.97 M-0.44 6.4 C2.39 3.28, 3.23 1.65, 4.21 0.26 M3.31 13.74 C5.5 9.27, 7.61 8.72, 7.81 -2.5 M-0.99 11.57 C3.3 9.59, 5.48 4.61, 9.95 -1.53 M1.49 20.3 C6.43 17.09, 3.87 9.34, 17.95 3.71 M-1.85 17.62 C2.81 14.84, 8.28 8.79, 15.77 0.12 M3.83 22.04 C3.28 13.91, 11.85 14.82, 25 -0.2 M-0.35 23.62 C5.73 14.62, 12.01 7.44, 20.24 0.5 M-2.1 34.07 C1.98 20.54, 15.43 20.41, 29.16 0.18 M0.96 31.66 C9.72 19.82, 18.23 7.02, 25.6 1.53 M-3.67 39.45 C13 21.06, 24.54 9.08, 34.88 2.5 M-0.41 38.63 C8.27 28.56, 18.23 17.27, 30.17 -0.09 M-3.35 38.79 C11.28 32.02, 15.72 21.85, 37.89 -0.03 M-1.67 42.88 C13.72 29.69, 24.67 13.08, 38.47 1.33 M-3.65 51.57 C12.95 35.59, 33.21 16.89, 39.44 -1.59 M-1.19 46.95 C8.84 33.89, 21.83 21.8, 41.92 -1.08 M-1.57 53.87 C17.52 32.49, 28.99 20.42, 50.09 -2.75 M1.58 52.86 C17.09 33.74, 35.75 11.64, 49.11 -0.25 M-0.82 63.35 C16.78 42.15, 34.24 19.41, 55.89 -1.53 M0.37 60.56 C11.32 46.55, 23.29 35.06, 54.56 -0.63 M1.78 69.01 C13.51 49.27, 24.09 34.1, 54.2 3.7 M-1.84 67.21 C10.86 54.64, 23.37 40.37, 56.97 0.26 M-0.72 72.46 C18.71 46.63, 42.2 21.82, 59.91 -0.89 M0.74 73.93 C22.83 43.98, 43.89 20.35, 63.95 -1.64 M-2.3 81.13 C25.01 50.87, 43.19 31.55, 69.17 0.51 M-1.78 80.53 C27.34 49.17, 50.09 19.41, 70.28 1.57 M-2.43 86.07 C22.19 61.25, 37.99 40.1, 73.7 -1.74 M1.13 84.77 C19.95 60.95, 41.05 41.27, 74.68 0.24 M-2.27 90.92 C24.04 65.01, 49.79 31.79, 80.45 2.34 M-1.31 92.9 C28.84 59.71, 56.61 27.35, 78 1.67 M0.86 97.63 C24.21 72.23, 42.79 47.32, 85.95 3.33 M-1.14 98.83 C24.58 70.65, 49.37 40.77, 84.07 0.6 M-3.43 99.79 C28.51 73.64, 55.18 42.22, 87.98 1.39 M1.91 102.93 C34.18 64.91, 66.61 25.68, 89.85 1.77 M0.4 107.81 C37.19 66.06, 68.76 24.15, 91.87 -0.72 M-2.06 110.8 C36.38 65.24, 74.21 23.8, 94.23 -1.7 M3.42 118.68 C26.37 86.08, 53.56 54.44, 98.21 -0.66 M-1.03 116.47 C27.07 87.24, 50.87 58.45, 100.28 -1.66 M0.64 120.27 C26.98 89.23, 51.99 56.76, 109.14 -3.49 M1.84 120.17 C21.84 89.95, 47.66 64.75, 107.99 -0.56 M7.87 121.23 C23.56 91.6, 50.37 70.57, 108.07 -0.65 M7.61 119.82 C41.06 78.76, 74.22 39.32, 112.51 -0.88 M13.7 121.65 C40.31 86.08, 70.75 56.27, 113.3 -0.27 M11.97 123.09 C34.86 92.69, 62.45 60.43, 116.28 2.1 M14.81 122.88 C54.56 76.77, 91.36 34.05, 121.03 -1.88 M15.12 118.83 C56.78 72.61, 100.29 28.38, 122.52 -0.93 M23.19 121.93 C59.19 79.36, 97.45 44.73, 128.37 -3.16 M23.44 120.86 C52.09 84.1, 80.6 52.47, 128.77 1.39 M24.34 120.34 C70.37 72.11, 112.24 23.68, 131.01 1.81 M26.23 122.4 C56.09 87.6, 85.87 53.02, 131 0.41 M29.06 121.29 C62.07 85.83, 92.8 46.4, 134.88 3.54 M33.97 122.69 C63.94 85.67, 94.72 50.59, 137.87 1.91 M39.66 122.54 C62.54 91.86, 88.92 66.75, 146.47 2.12 M39.05 121.36 C64.63 86.61, 96.48 54.23, 143.44 0.62 M45.74 121.43 C74.39 86.09, 105.57 52.47, 144.53 4.25 M42.03 121.06 C66.49 94.88, 87.31 72.88, 149.44 -1.26 M46.45 123.91 C90.42 70.63, 132.08 25.88, 150.36 0.22 M48.4 121.82 C86.12 77.63, 126.78 30.76, 154.03 0.42 M54.2 117.51 C87.8 85.26, 117.7 50.31, 159.51 0.9 M54.83 119.69 C89.75 81.08, 124.86 37.49, 158.06 -1.75 M60.93 120.37 C94.09 87.87, 119.03 48.98, 164.11 -1.22 M57.89 121.12 C100.84 76.57, 139.1 29.99, 165.76 -0.22 M65.86 122.22 C95.77 84.25, 124.88 50.53, 172.52 -3.07 M64.34 121.56 C98.96 79.24, 134.16 37.17, 171.07 2.03 M73.77 117.37 C102.6 78.69, 141.03 38.27, 175.67 2 M71.85 119.86 C95.51 92.14, 119.2 64.46, 174.33 -2.07 M74.69 117.74 C106.29 76.36, 149.26 35.62, 182.76 -2.74 M75.26 120.88 C96.61 92.18, 121.32 64.78, 180.56 -1.08 M82.18 121.82 C119.03 74.63, 164.27 28.38, 187.5 -0.45 M79.36 121.89 C105.21 93.53, 127.32 67.41, 184.2 1.34 M89.11 119.74 C122.52 79.82, 159.09 40.6, 187.91 0.32 M85.08 119.13 C112.41 95.15, 132.69 69.97, 191.37 1.02 M89.86 118.16 C125.8 75.61, 162.26 33.75, 192.52 -1.4 M90.27 122.3 C109.29 94.4, 134 69.39, 196.6 -0.27 M100.08 121.4 C133.46 76.09, 173.42 35.07, 200.17 -1.96 M95.99 121.04 C117.34 91.91, 142.99 63.57, 201.09 -0.32 M98.99 124.32 C144 77.58, 180.07 36.21, 206.2 -0.15 M103.18 119.44 C126.5 93.01, 150.25 61.94, 205.48 -1.93 M105.05 117.41 C131.15 91.53, 152.25 69.26, 214.25 -0.15 M106.97 122.57 C147.42 75.23, 189.04 29.8, 212.07 1.51 M109.62 120.48 C149.51 73.32, 192.78 33.72, 218.47 -2.54 M112.75 119.67 C141.37 84.31, 177.12 45.56, 217.57 0.58 M115.95 119.95 C145.1 92.62, 168 64.58, 223.32 0.69 M117.72 118.95 C153.28 81.95, 188.33 37.81, 223.38 0.34 M122.25 118.07 C149.64 90.6, 173 63.84, 225.78 3.12 M124.4 122.33 C160.59 74.64, 201.35 33.33, 228.32 -1.25 M127.24 118.69 C158.01 81.67, 187.22 54.18, 235.1 -3.03 M128.73 120.65 C166.08 77.44, 201.93 37.29, 234.87 1.27 M133.93 124.26 C172.17 78.43, 205.57 31.36, 238.42 -1.23 M134.31 120.26 C168.18 80.42, 203.27 40.67, 237.3 0.04 M139.85 120.81 C162.27 94.19, 190.09 67.88, 247.78 2.64 M137.19 121.4 C159.75 91.52, 183.76 67.29, 243.14 0.65 M140.84 122.99 C169.44 94.05, 198.83 57.64, 251.15 -2.44 M144.07 120.81 C176.03 85.25, 204.81 53.8, 250.78 0.92 M153.24 119 C184.45 80.76, 220.87 29.74, 258.04 1.11 M149.07 122.16 C182.28 82.71, 212.84 47.58, 253.51 -1.91 M153.69 123.68 C177.44 90.52, 208.31 67.14, 263.25 0.45 M156.01 122.58 C181.52 90.14, 208.69 61.77, 257.82 -0.63 M157.35 123.43 C186.44 93.16, 211.15 65.1, 269.09 1.32 M159.1 119.16 C189.74 81.79, 225.37 43.18, 264.09 0.42 M165.67 121.27 C192.17 89.6, 219.61 56.6, 273.17 1.1 M165.23 119.42 C192.67 88.01, 220.55 57.78, 268.88 -0.14 M172.62 121.79 C196.65 91.13, 214.93 66.13, 274.62 -2.29 M170.73 119.87 C207.43 76.36, 244.79 36.18, 277.7 1.74 M176.47 120.18 C211.3 76.84, 247.98 38.03, 277.86 2.7 M175.58 120.43 C208.56 88.74, 237.19 56.52, 279.19 2.11 M178.01 119.24 C220.85 82.33, 257.49 40.67, 282.83 2.19 M180.18 119.01 C207.42 90.37, 232.42 57.66, 285.94 -0.59 M184.3 118.36 C211.67 86.72, 246.77 51.99, 288.76 1.92 M187.62 121.95 C210.54 98.57, 233.72 69.58, 292.71 1.09 M190.95 122.48 C213.31 91.08, 242.59 57.01, 300.41 -3.8 M192.41 118.56 C215.8 92.01, 241.65 63.22, 297.16 -1.98 M193.84 123.21 C239.47 77.2, 276.59 25.72, 299.82 -3.05 M198.72 119.59 C236.34 75.61, 275.68 28.63, 302.14 -0.97 M203.39 123.69 C225.12 89.82, 253.73 62.62, 308.55 2.67 M201.14 119.74 C231.94 86.39, 262.18 54.02, 308.43 1.41 M208.29 119.68 C244.41 79.1, 282.54 35.19, 311.48 3.47 M206.95 120.18 C226.78 95.93, 251.79 68.45, 312.96 1.4 M213.77 116.53 C241.42 91.31, 262.39 64.98, 318.96 -1.97 M212.84 119.02 C246.27 82.62, 278.89 43.73, 317.6 0.69 M221.34 118.19 C256.68 79.08, 288.15 43.44, 322.68 -1.35 M219.16 121.83 C253.39 78.47, 287.53 38.3, 323.38 0.93 M226.39 120.95 C243.83 96.66, 272.61 71.29, 325.83 0.2 M222.06 120.88 C247.13 95.71, 270.72 68.34, 327.26 -1.8 M225.2 122.68 C261.69 79.98, 295.04 49.25, 330.88 1.17 M226.94 121.89 C266.65 79.69, 302.39 38.25, 332.37 1.58 M230 124.12 C275.11 74.15, 310.19 27.6, 337.85 -3.38 M234.07 122.78 C268.64 86.35, 296.11 50.16, 340.75 -0.45 M242.56 122.57 C276.99 85.4, 308.98 47.67, 348.02 -0.77 M238.63 120.94 C279.08 76.16, 320.97 32.54, 343.63 -1.43 M241.9 124.97 C279.46 78.26, 315.21 34.22, 345.56 0.98 M244.95 119.71 C277 78.43, 311.71 39.4, 349.5 2.32 M246.6 116.8 C292.99 74.92, 336.49 29.21, 352.54 -1.52 M251.31 118.85 C282.12 80.96, 317.85 42.63, 353.64 -1.61 M254.52 123.18 C278.47 94.01, 303.92 68.12, 363.97 2.19 M256.15 121.12 C291.03 79.26, 324.46 37.43, 359.67 1.12 M257.04 121.79 C281.05 93.61, 309.7 63.13, 364.14 4.16 M258.83 118.71 C285.35 93.71, 309.46 62.38, 362.36 4.79 M266.81 119.93 C294.73 83.27, 322.41 51.27, 362.12 13 M265.88 119.75 C287.87 95.67, 312.43 69.37, 361.69 12.11 M268.05 123.47 C289.53 93.43, 314.12 70.91, 357.61 17.69 M271.77 118.85 C290.23 99.43, 310.12 77.43, 359.11 19.5 M276.23 117.9 C306.13 86.07, 342.38 45.42, 361.21 22.79 M277.12 119.57 C306.53 84.14, 340.26 47.17, 360.39 25.83 M280.35 117.27 C308.92 91.83, 330.53 68.25, 361.46 33.71 M281.48 120.9 C311.03 85.23, 339.65 52.87, 361.14 31.19 M286.7 121.27 C306.31 100.63, 320.79 83.67, 362.43 34.47 M285.58 119.8 C303.13 103.27, 319.62 86.75, 358.88 36.11 M293.11 124.13 C310.33 95.78, 331.99 74.51, 363.47 40.66 M292.05 121.68 C313.2 95.25, 335.72 72.16, 359.28 44.09 M300.69 119.72 C313.49 105.1, 327.9 82.99, 356.81 53.23 M295.71 122.91 C318.62 93.3, 342.06 68.31, 360.32 48.82 M304.05 118.46 C320.27 91.88, 348.1 66.63, 358.59 51.71 M304.31 121.3 C321.67 101.56, 337.86 78.94, 361.74 52.93 M311.12 120.42 C326.28 97.88, 343.2 82.8, 359.87 59.49 M308.75 122.63 C320.54 107.55, 330.86 93.65, 358.63 62.78 M317.35 124.21 C326.6 102.91, 349.12 83.87, 364.27 65.54 M315.86 119.11 C328.26 104.41, 342.79 87.8, 361.49 67.67 M317.46 124.07 C330.8 103.78, 348.53 85.13, 359.65 69.44 M318.65 119.93 C328.01 112.79, 333.61 99.54, 358.49 74.36 M327.71 118.8 C330.45 114.34, 339.46 103.01, 363.79 83.09 M325.03 121.7 C335.32 109.72, 344.48 98.64, 359.57 78.3 M325.64 124.84 C338.91 107.83, 348.78 94.06, 359.34 84 M328.12 119.02 C340.85 109, 352.27 93.71, 361.98 86.39 M335.67 121.92 C344.25 110.66, 347.21 103.97, 356.91 88.52 M334.27 119.68 C339.92 111.91, 349.62 106.22, 359.78 91.77 M340.11 118.4 C346.86 118.9, 352.43 109.89, 360.63 97.6 M340.64 119.39 C347.44 115.38, 351.16 107.97, 359.95 96.99 M342.23 120.48 C345.78 119.94, 352.67 109.4, 363.92 101.78 M344.71 120.63 C350.2 117.69, 354.1 111.7, 360.66 104.57 M348.72 118.79 C352.87 119.34, 358.06 110.71, 362.15 107.92 M351.93 120.07 C355.04 116.5, 356.83 115.16, 359.53 108.83 M354.8 121.15 C356.14 118.21, 357.94 116.75, 361.75 117.15 M355.98 121.32 C357.4 118.93, 359.19 117.54, 361.02 115.79" stroke="#228be6" stroke-width="0.5" fill="none"></path><path d="M0.48 -0.57 C123.08 4.1, 246.2 1.56, 358.21 1.9 M-0.14 0.38 C112.55 3.83, 226.05 2.48, 360.23 -0.28 M357.3 2.53 C360.1 32.99, 358.69 60.82, 359.8 122.45 M359.4 0.96 C360.59 28.83, 359.55 58.25, 360.98 120.31 M362.38 121.03 C247.61 121.14, 132.76 123.16, 2.31 120.1 M359.92 121.13 C251.22 119.99, 140.01 119.98, 0.2 118.79 M-2.24 117.01 C-0.08 91.85, -0.72 73.97, 2.48 3.1 M-1.03 120.54 C2.9 87.62, -0.57 52.24, -0.19 -0.58" stroke="#000000" stroke-width="1" fill="none"></path></g><g transform="translate(290 969.396249553105) rotate(0 67.5 20)"><text x="0" y="28" font-family="Virgil, Segoe UI Emoji" font-size="31.76470588235294px" fill="#000000" text-anchor="start" style="white-space: pre;" direction="ltr">boundary</text></g><g stroke-linecap="round"><g transform="translate(231.14167658438964 849.1841271048784) rotate(0 -0.3804800268632107 30.791806207588024)"><path d="M0.32 0.82 C0.48 10.68, 0.29 49.97, 0.1 59.89 M-0.97 0.21 C-0.91 10.19, -1.38 51.71, -0.98 61.37" stroke="#000000" stroke-width="1" fill="none"></path></g><g transform="translate(231.14167658438964 849.1841271048784) rotate(0 -0.3804800268632107 30.791806207588024)"><path d="M-10.16 32.89 C-9.13 37.72, -5.94 45.33, 0.42 59.5 M-10.94 34.17 C-9.18 39.5, -5.99 48.02, -1.82 62.03" stroke="#000000" stroke-width="1" fill="none"></path></g><g transform="translate(231.14167658438964 849.1841271048784) rotate(0 -0.3804800268632107 30.791806207588024)"><path d="M10.36 32.67 C6.71 37.61, 5.22 45.27, 0.42 59.5 M9.58 33.96 C6.11 39.26, 4.06 47.84, -1.82 62.03" stroke="#000000" stroke-width="1" fill="none"></path></g></g><g transform="translate(250.4145208547052 868.0221669117359) rotate(0 99.5 12.5)"><text x="0" y="18" font-family="Virgil, Segoe UI Emoji" font-size="20px" fill="#000000" text-anchor="start" style="white-space: pre;" direction="ltr">use or/and implement</text></g><g stroke-linecap="round"><g transform="translate(230.71340957297934 1069.4497468434274) rotate(0 0.6100384812771154 30.07812774344825)"><path d="M0.49 0.65 C0.58 10.88, -0.26 50.42, -0.39 60.21 M-0.71 -0.05 C-0.15 9.89, 2.04 48.12, 1.93 58.2" stroke="#000000" stroke-width="1" fill="none"></path></g><g transform="translate(230.71340957297934 1069.4497468434274) rotate(0 0.6100384812771154 30.07812774344825)"><path d="M-8.02 29.08 C-6.57 35.41, -5.44 43.35, 2.81 59.75 M-9.74 30.09 C-6.27 40.68, -1.98 48.01, 2.65 57.8" stroke="#000000" stroke-width="1" fill="none"></path></g><g transform="translate(230.71340957297934 1069.4497468434274) rotate(0 0.6100384812771154 30.07812774344825)"><path d="M12.5 28.51 C9.38 35.06, 5.95 43.12, 2.81 59.75 M10.77 29.52 C7.39 40.18, 4.83 47.7, 2.65 57.8" stroke="#000000" stroke-width="1" fill="none"></path></g></g><g transform="translate(249.9862538432949 1088.287786650285) rotate(0 16.5 12.5)"><text x="0" y="18" font-family="Virgil, Segoe UI Emoji" font-size="20px" fill="#000000" text-anchor="start" style="white-space: pre;" direction="ltr">use</text></g><g stroke-linecap="round" transform="translate(130 589.3962495531048) rotate(0 220 359.9999999999999)"><path d="M-0.07 -0.55 C157.33 -4.7, 318.32 -5.4, 438.18 1.85 M-0.95 0.12 C117.67 0.59, 235.95 0.55, 439.56 -0.11 M441.13 0.39 C440.16 188.66, 442.32 380.24, 438.43 718.99 M439.63 0.74 C443.48 181.4, 442.59 360.94, 440.08 719.58 M439.39 721.42 C342.22 717.44, 245.27 716.85, 0.19 719.15 M440.86 719.56 C309.76 721.97, 178.99 721.26, -0.15 719.09 M-1.54 720.24 C-3.07 560.66, -2.7 404.49, -1.17 0.16 M-0.66 719.64 C2.52 472.89, 2.99 226.1, 0.23 0.49" stroke="#000000" stroke-width="1" fill="none"></path></g><g transform="translate(1030 629.3962495531048) rotate(0 62.5 20)"><text x="0" y="28" font-family="Virgil, Segoe UI Emoji" font-size="31.764705882352942px" fill="#000000" text-anchor="start" style="white-space: pre;" direction="ltr">adapter</text></g><g stroke-linecap="round" transform="translate(910 709.3962495531048) rotate(0 180 60.000000000000114)"><path d="M0 0 C0 0, 0 0, 0 0 M0 0 C0 0, 0 0, 0 0 M0.27 6.32 C1.45 3.7, 2.63 3.49, 4.86 0.3 M-0.26 5.63 C1.69 4.29, 3.82 1.53, 5.46 0.2 M2.7 9.91 C2.22 8.22, 10.19 1.6, 9.24 2.32 M-1.37 11.36 C2.44 9.4, 6.8 3.95, 12.13 0.24 M-3.38 19.75 C2.02 17.2, 11.46 7.71, 18.86 2.92 M-1.86 18.8 C5.01 12.97, 10.03 3.93, 14.44 -0.49 M-3.23 27.76 C4.95 20.01, 6.82 15.71, 17.78 0.84 M0.99 23.89 C8.54 13.5, 14 6.43, 22.15 0.84 M2.59 30.77 C5.8 20.73, 14.27 15.25, 26.83 -2.82 M-0.78 29.89 C10.24 18.3, 16.71 9.57, 25.13 1.89 M-0.53 36.78 C5.87 26.75, 22.3 18.82, 29.37 3.34 M1.15 37.25 C10.98 27.41, 19.21 17.2, 29.92 0.02 M-3.61 43.7 C11.56 33.13, 21.44 22.84, 36.76 0.66 M1.58 41.22 C12.76 24.96, 29.99 9.65, 35.44 1.93 M-1.05 50.61 C10.46 35.04, 27.43 17.58, 44.56 -0.64 M0.27 49.6 C17.2 30.77, 30.49 12.02, 42.65 1.08 M-3.03 53.49 C16.82 41.29, 34.3 17.34, 50.33 -2.42 M-0.93 52.99 C18.42 37.14, 32.92 17.7, 45.85 -0.77 M-1.77 60.22 C12.32 46.89, 27.22 30.45, 49.81 0.34 M1.16 62.28 C19.06 43.91, 34.63 23.76, 54.43 -0.04 M0.09 70.34 C13.83 53.53, 26.76 39.27, 54.72 2.61 M0.13 66.92 C22.1 41.76, 43.27 14.86, 60.09 2.13 M2.49 70.29 C20.65 54.4, 34.54 33.59, 65.02 0.23 M-1.46 72.63 C21.34 52.23, 39.1 32.28, 62.62 1.39 M-3.01 76.68 C11.73 63.24, 33.04 42.74, 70.62 -3.04 M-1.57 79.22 C19.71 56.91, 39.92 36.33, 69.13 -0.3 M2.4 84.02 C23.82 61.35, 47.98 32.62, 71.64 -0.53 M-1.6 86.75 C22.25 62.35, 43.22 37.04, 75.81 -1.17 M2.46 87.73 C14.62 72.2, 29.35 54.34, 80.19 0.33 M0.9 93.11 C34.07 57.88, 62.47 18.41, 79.18 1.81 M-2.51 95.86 C23.72 67.63, 44.28 41.07, 84.59 -2.99 M1.29 96.22 C29.84 65.85, 55.21 34.98, 85.85 -1.51 M1.42 100.41 C21.73 79.68, 44.11 55.69, 91.13 -1.1 M-1.61 103.8 C20.24 77.69, 41.25 55.14, 91.73 -0.98 M-1.24 112.5 C35.99 77.09, 67.01 37.4, 96.31 -1.71 M1 111.13 C27.15 80.27, 51.37 46.09, 95.84 -0.66 M-3.71 118.18 C26.4 84.43, 57.59 54.51, 104.6 1.38 M1 115.26 C23.36 88.03, 49.63 58.06, 99.5 -1.31 M1.38 124.64 C34.87 76.28, 74.39 37.72, 108.71 -0.74 M1.26 119.82 C29.21 90.23, 56.06 58.42, 108.12 1.1 M4.92 120.19 C38.49 77.32, 76.55 41.6, 107.3 -1.05 M7.99 121.41 C46.64 74.3, 86.84 31.24, 110.45 0.91 M11.22 118.89 C52.36 75.59, 92.79 30.05, 116.59 3.12 M10.21 120.8 C55.3 76.55, 94.45 26.92, 115.64 0.99 M15.42 124.39 C46.21 88.66, 75.08 58.62, 119.4 -2.68 M18.63 121.23 C56.65 72.9, 95.26 29.08, 123.81 -1.49 M24.62 118.28 C60.18 74.12, 108.36 26.41, 126.17 1.3 M20.25 119.25 C47.88 87.8, 76.84 52.49, 128.56 -1.3 M30.13 119.02 C71.49 73.52, 108.69 26.36, 130.57 0.68 M28.18 122.21 C52.54 90.58, 79.85 62.35, 134.06 1.08 M33.25 125 C74.16 75.56, 111.54 28.45, 135.24 2 M32.84 121.75 C65.82 84.39, 98.6 46.52, 138.31 0.96 M41.47 117.51 C76.4 71.58, 120.82 28.68, 140.01 3.72 M39.74 119.32 C64.33 92.64, 88.28 65, 142.91 -1.04 M46.29 123.75 C75.02 87.59, 101.94 54.06, 151.71 3.18 M44.71 119.64 C82.81 78.04, 119.01 35.4, 148.25 -1.51 M51.39 123.82 C71.3 94.44, 93.26 69.58, 156.38 -0.36 M47.66 120.27 C89.16 72.96, 130.25 27.18, 155.34 -0.75 M50.43 121.73 C94.95 68.79, 136.68 20.24, 161.03 1.27 M51.83 121.02 C88.62 84.09, 121.36 48.64, 156.98 -1.25 M63.3 124.38 C87.57 88.61, 114.83 52.2, 165.88 -3.87 M57.54 121.52 C81.27 92.69, 105.5 66.26, 163.57 1.78 M65.85 124.62 C98.15 78.8, 138.01 38.09, 166.12 -0.78 M65.43 122.71 C94.93 84.97, 123.82 50.18, 170.33 1.95 M66.14 120.15 C104.71 81.07, 139.61 45.15, 172.17 -0.6 M70.22 120.3 C100.8 83.88, 136.6 45.22, 175.07 -0.86 M74.21 120.63 C118.13 71.64, 156.49 29.1, 179.41 -1.53 M75.97 122.32 C104.52 86.89, 134.58 51.32, 181.42 1.06 M82.33 118.57 C105.43 90.27, 125.9 64.85, 188.44 -1.87 M81.8 118.57 C101.34 94.76, 122.54 67.42, 184.57 0.67 M82.72 120.44 C114.24 94.23, 138.61 60.55, 190.82 -1.02 M85.17 122.17 C111.45 87.89, 141.03 54.69, 190.58 1.79 M87.81 117.58 C120.7 94.77, 142.35 68.09, 197.36 3.52 M91.63 119.03 C134.21 76.4, 171.95 29.95, 198.04 0.47 M100.04 117.26 C131.14 84.07, 167.22 46.32, 199.8 -0.82 M98.02 121.37 C129.84 80.87, 162.59 45.24, 201.41 -1.39 M100.01 121.64 C128.19 92.05, 150.35 67.39, 207.13 1.26 M102.3 121.17 C126.55 92.44, 148.21 66.7, 208.7 1.37 M104.35 118.78 C132.64 87.72, 161.42 54.36, 215.27 4.02 M106.73 119.74 C136.94 86.68, 168.73 51.51, 212.77 -1.26 M113.2 118.43 C143.75 84.82, 179.76 44.5, 219.41 -0.44 M111.01 121.94 C141.39 85.14, 171.74 48.66, 217.03 -1.04 M115.33 123.2 C140.56 94.25, 160.34 67.37, 223.66 0.95 M118.78 121.89 C150.23 85.47, 178.08 48.64, 222.74 -1.87 M125.12 123.89 C152.1 81.34, 182.74 48.26, 229.38 -2.89 M124.17 120.8 C153.64 84.03, 186.21 46.84, 226.74 1.59 M130.17 119.2 C160.68 85.4, 196.14 41.07, 236.9 -0.09 M128.89 121.15 C163.14 85.17, 192.17 51.18, 232.69 1.51 M133.04 122.74 C162.21 83.79, 198.19 53.17, 241.08 -0.15 M133.47 120.23 C156.84 94.89, 179.19 67.39, 240.16 -0.91 M139.54 117.99 C161.31 98.18, 188.58 63.45, 244.41 1.35 M139.03 119.6 C172.34 84.57, 203.71 48, 243.19 -1.67 M144.4 121.4 C180.76 80.54, 219.16 40, 245.99 1.98 M142.5 122.67 C167.54 86.41, 198.64 54.22, 248.81 -0.21 M151.62 121.27 C181.7 89.41, 208.45 58.21, 253.14 -3.79 M150.42 120.1 C182.62 78.66, 217.45 43.67, 254.11 -1.18 M152.13 124.83 C183.16 80.65, 221.91 47.57, 259.14 -1.57 M154.12 119.37 C184.6 87.29, 216.16 51.71, 257.52 -0.95 M160.09 121.22 C198.3 75.63, 241.74 29.63, 263.5 -2.07 M159.54 122.23 C181.83 93.82, 208.17 65.76, 264.54 -2.07 M166.65 120.47 C206 76.61, 242.13 30.15, 273.7 -2.08 M166.43 122.26 C204.86 77.29, 242.48 30.38, 271.01 0.2 M168.14 124.54 C195.2 93.74, 217.21 63.01, 277.43 2.48 M170.11 122.32 C203.95 83.38, 238.67 43.94, 276.83 -0.61 M175.89 118.27 C210.2 84.87, 233.93 50.77, 284.35 -0.37 M176.76 120.08 C201.75 92.3, 222.85 64.67, 281.25 -0.67 M180.44 120.43 C211.47 95.47, 238.6 58.4, 290.35 -3.72 M181.1 121.48 C220.01 80.75, 257.79 35.91, 284.58 -0.35 M185.29 118.67 C201.66 101.39, 226.43 76.21, 295.28 1.25 M185.71 122.28 C210.95 90.78, 235.67 62.61, 291.46 1.28 M195.16 120.58 C221.52 88.59, 246.1 56.9, 299.21 -3.72 M190.74 121.53 C224.52 86.61, 254.74 49.95, 296.62 -0.06 M193.77 120.62 C239.27 69.37, 278.79 24.88, 304.17 -1.01 M197.15 119.08 C238.23 75.34, 275.43 28.14, 300.12 -0.35 M204 119.18 C228.57 97.15, 249.75 64.24, 310.42 1.93 M204.49 121.07 C242.71 77.14, 278.42 33.16, 309.07 -1.79 M209.76 121.56 C243.27 89.25, 271.65 49.55, 310.19 3.54 M206.15 121.45 C238.65 84.34, 267.82 48.73, 312.94 0.76 M216.13 116.94 C239.16 84.07, 271.98 53.41, 315.92 3.18 M215.09 119.44 C240.09 96.21, 262.93 68.25, 317.26 1.19 M219.19 117.44 C253.19 75.54, 289.92 40.81, 322.02 0.1 M219.08 121.1 C247.17 86.69, 273.34 53.42, 322.91 -0.29 M225.57 121.81 C249.37 85.37, 284.01 50.95, 325.13 -3.54 M221.84 121.49 C260.99 79.19, 297.38 36.06, 327.81 0.33 M225.5 118.7 C258.24 83.78, 285.31 51.32, 333.85 -3.65 M229.52 122.49 C248 91.65, 271.73 67.39, 334.23 0.35 M237.82 121.96 C268.02 82.69, 302.33 34.02, 340.99 0.74 M233.28 122.54 C262.91 88.23, 294.22 53.24, 338.54 -0.15 M241.61 118.29 C271.92 84.27, 303.86 52.67, 341.35 -1.5 M238.33 118.84 C266.49 87.57, 292.76 58.19, 346.4 -0.75 M241.9 122.35 C269.9 87.61, 292.69 62.13, 351.27 2.19 M243.23 120.93 C265.11 97.99, 287.26 75.28, 349.91 1.48 M249.95 123.66 C272.09 95.85, 299.05 69.7, 357.7 3.24 M249.6 120.12 C295.02 70.38, 336.2 20.61, 354.12 1.77 M252.99 117.68 C296.94 77.85, 331.65 28.31, 363.21 -0.73 M253.41 123.02 C286.97 85.61, 314.55 51.35, 359.58 1.41 M258.46 116.74 C297.55 82.78, 329.42 39.07, 360.34 3.81 M262.69 121.04 C285.22 89.49, 309.63 60.23, 362.13 4.02 M263.77 117.13 C290.69 87.28, 319.94 58.93, 357.09 11.24 M264.79 119.88 C305.07 77.5, 344.59 33.11, 359.98 10.94 M268.55 117.99 C300.27 87.09, 333.98 49.68, 356.78 18.64 M272.18 121.06 C296.16 88.4, 324.59 58.97, 358.99 17.6 M276.41 120.41 C294.66 97.22, 314.73 80.32, 360.33 22.98 M277.6 119.36 C295.44 104.86, 312.9 82.07, 360.47 25.22 M283.17 122.35 C306.68 91.34, 331.13 60.84, 363.27 32.4 M283.92 120.4 C297.85 103.49, 313.08 85.22, 359.73 30.56 M286.6 117.71 C313.02 90.95, 341.04 66.54, 359.37 37.93 M287.31 122.05 C304 100.64, 317.74 81.72, 359.14 36.2 M290.73 123.27 C310.54 96.5, 328.78 80, 358.34 44.53 M291.03 120.02 C314.1 95.65, 338.19 70.65, 359.42 43.99 M299.53 121.73 C307.9 101.54, 327.3 84.53, 357.47 50.8 M296.64 121.29 C309.92 106.2, 324.76 92.28, 360.69 49.35 M305.18 120.68 C321.46 107.18, 338.32 88.86, 362.65 52.23 M301.83 121.64 C316.75 104.05, 333.54 87.32, 361.03 54.98 M305.85 119.65 C325.54 101.36, 334.04 84.16, 361.39 60.51 M307.57 119.16 C328.56 101.17, 349.4 77.64, 359.02 60.64 M317.93 121.04 C323.22 105.32, 337.6 96.52, 358.4 67.19 M315.93 119.73 C332.25 98.76, 348.32 80.66, 358.79 65.37 M321.77 121.19 C328.87 104.06, 342.93 98.68, 361.39 74.77 M317.31 122.51 C332.06 106.95, 344.12 91.97, 361.32 73.02 M321.93 121.3 C339.48 105.76, 354.5 92.08, 360.6 76.36 M324.18 121.49 C335.8 108.36, 347.48 94.38, 361.5 78.5 M332.95 118.52 C341.88 114.24, 346.35 103.39, 357.9 83.02 M330.34 118.93 C339.72 111.81, 347.86 99.65, 358.69 85.47 M334.94 117.64 C340.73 115.02, 346.46 101.43, 363.75 94.93 M336.02 119.65 C342.3 112.77, 346.51 108.65, 359.22 92.2 M342.58 118.35 C346.87 113.29, 353.33 104.86, 360.85 97.21 M338.38 120.76 C344.6 112.53, 350.8 106.95, 361.49 97.7 M346.2 118.51 C354.29 112.89, 354.67 108.75, 361.87 106.85 M346.1 121.42 C352.03 114.19, 356.96 107.44, 359.25 103.32 M348.38 118.75 C352.68 118.09, 358.25 114.52, 357.91 111.84 M351.93 120.99 C353.16 117.51, 357.94 113.01, 359.05 110.72 M354.64 122.53 C357.63 118.86, 359.82 117.4, 359.95 116.54 M355.3 121.09 C357.08 119.03, 358.34 117.43, 360.54 116.15" stroke="#228be6" stroke-width="0.5" fill="none"></path><path d="M2.33 1.36 C142.23 2.64, 285.59 0.75, 360.49 -2.21 M0.83 0.91 C73.44 1.13, 146.15 1.72, 361.1 1.04 M363.51 3.92 C358.23 47.68, 360.87 94.03, 356.71 122.65 M361.41 1.68 C358.61 45.21, 356.65 89.45, 360.46 121.28 M358.25 117.48 C275.64 118.25, 193.38 118.7, -1.55 120.91 M359.06 121.22 C243.49 122.93, 125.44 124.66, -0.63 118.76 M0.4 117.83 C0.05 90.18, -4.45 66.56, -0.76 1.42 M1.09 121.83 C1.92 88.61, -1.42 54.68, -0.04 0.74" stroke="#000000" stroke-width="1" fill="none"></path></g><g transform="translate(1010 749.396249553105) rotate(0 86 20)"><text x="0" y="28" font-family="Virgil, Segoe UI Emoji" font-size="31.76470588235294px" fill="#000000" text-anchor="start" style="white-space: pre;" direction="ltr">persistence</text></g><g stroke-linecap="round" transform="translate(910 1149.396249553105) rotate(0 180 60)"><path d="M0 0 C0 0, 0 0, 0 0 M0 0 C0 0, 0 0, 0 0 M-0.51 5.79 C0.21 6.06, 2.45 3.03, 5.73 1.26 M-0.06 6.35 C1.67 4.16, 3.04 3.08, 5.29 -0.43 M-1.56 12.27 C5.7 6.39, 4.59 7.58, 11.37 -1.37 M-1.05 13.46 C4.09 7.46, 9.74 3.33, 9.99 1.02 M-1.83 22.18 C9.89 10.3, 15.58 6.92, 18.29 -3.03 M-1.07 19.9 C4.62 10.39, 11.28 3.45, 13.77 -1.3 M0.2 24.61 C2.34 20.09, 5.64 14.91, 24.04 1.94 M1.03 22.51 C5.32 16.63, 14.51 9.47, 19.57 1.8 M0.71 27.68 C13.2 17.08, 20.32 4.17, 28.74 3.46 M1.22 28.97 C4.95 23.81, 12.2 17.18, 26.08 -1.44 M-4.14 37.12 C10.56 31.25, 12.44 22.88, 31.55 -2.36 M1.19 38.1 C8.75 27.94, 15.69 15.68, 30.72 -0.75 M2.42 43.57 C16.41 29.24, 25.19 14.66, 40.6 1.54 M-1.41 42.05 C14.19 28.4, 24.92 13.81, 36.75 1.94 M-1.24 49.81 C18.04 29.61, 31.34 14.47, 45.25 0.08 M1.55 48.02 C7.69 36.99, 17.3 29.72, 43.01 -2.01 M0.49 58.55 C15.89 38.26, 28.69 23.75, 49.81 1.14 M1.78 56.5 C13.82 41.38, 26.84 22.6, 47.14 1.56 M-1.83 63.38 C10.9 50.25, 21.75 33.44, 53.83 -1.53 M1.8 62.76 C13.14 45.97, 27.22 29.76, 51.4 -0.9 M0.93 68.57 C22.63 43.21, 38.83 19.89, 61.81 2.73 M0.09 67.15 C11.04 51.96, 27.28 39.83, 57.85 -1.13 M1.51 76.27 C20.25 49.75, 48.3 19.34, 63.47 -3.51 M1.54 72.78 C16.76 57.33, 29.91 40.6, 62.13 0.42 M-2.76 81.81 C32.05 48.03, 57.56 14.23, 67.51 -2.76 M0.06 79.33 C29.3 49.8, 54.15 18.38, 68.72 0.1 M1.71 85.42 C18.61 64.39, 28.01 49, 73.84 -3.65 M-0.39 85.28 C16.06 65.75, 33.4 48.19, 72.67 0.54 M-1.55 91.23 C16.99 69.16, 43.35 42.9, 83.34 -1.88 M1.5 93.4 C16.81 66.74, 37.71 47.26, 78.85 0.2 M0.55 95.04 C27.88 62.81, 58.23 29.45, 86.13 -1.27 M1.46 96.99 C18.26 75.62, 40.73 50.04, 83.73 -1.2 M-0.28 103.53 C25.45 76.3, 50.74 45.99, 87.25 1.31 M0.15 101.68 C29.99 70.78, 59.14 38.32, 90.59 -1.1 M3.27 113.56 C33.95 73.73, 62.03 37.17, 95.01 2.84 M1.74 111.12 C24.45 76.07, 52.57 46.51, 95.29 -0.7 M-2.25 115.89 C28.25 88.07, 56.96 57.51, 98.65 1.25 M-1.03 117.27 C31.34 79.58, 62.33 40.76, 101.53 0.65 M-0.69 117.43 C30.86 85.72, 60.15 52.8, 104.67 -1.64 M1.06 121.14 C28.62 89.11, 59.36 57.8, 106.57 -1.14 M4.61 117.22 C52.21 71.8, 86.43 24.24, 114.49 -1.09 M6.09 119.22 C31.12 90.62, 56.93 59.49, 112.52 -1.33 M12.76 119.03 C45.49 83.59, 72.13 55.5, 120.12 -1.74 M12.44 122.68 C34.27 94.83, 57.88 69.29, 115.4 -0.16 M18.67 119.23 C51.22 84.09, 74.66 47.93, 125.17 1.71 M17.67 119.63 C49.11 81.19, 86.62 38.43, 123.67 -1.06 M18.23 119.12 C46.56 93.86, 64.51 71.85, 125.87 3.71 M21.14 122.03 C60.58 78.95, 100.03 35.79, 128.8 -0.93 M28.53 119.89 C47.84 92.42, 74.21 64.63, 130.65 -0.4 M25.83 119.11 C47.66 94.77, 71.84 70.23, 134.32 0.15 M33.64 121.65 C57.27 87.81, 84.71 57.59, 137.93 0.66 M33.52 122.92 C70.53 79.06, 107.17 35.67, 139.09 0.39 M36.86 118.39 C77.25 79.52, 108.23 39.66, 140.34 -2.96 M38.56 121.77 C75.51 78.46, 113.85 31.67, 143.06 1.78 M46.43 121.06 C61.99 97, 87.6 73.35, 150.48 -3.19 M43.16 121.8 C74.17 84.46, 109.87 41.99, 146.49 -0.36 M47.83 120.45 C76.5 84.42, 111.78 47.5, 157.17 -3.04 M47.08 120.43 C86.2 78.92, 125.66 35.4, 155.74 0.04 M53.51 118.3 C95.23 71.75, 137.22 30.62, 159.21 -1.64 M54.92 119.89 C80.65 95.25, 100.71 66.22, 158.48 1.4 M59.14 122.24 C82.25 85.95, 114.61 50.46, 161.58 0.81 M57.86 120.69 C93.85 82.43, 127.81 44.62, 165.47 -0.1 M61.33 120.81 C92.85 86.81, 119.06 50.46, 169.29 2 M64.89 119.15 C84.89 91.41, 110.98 67.03, 169.78 -0.97 M69.95 118.46 C100.52 90.48, 122.85 59.09, 175.5 0.53 M68.61 120.89 C100.5 86.83, 127.68 53.76, 176.58 -0.93 M77.81 118.54 C116.49 76.39, 153.42 29.13, 179.4 2.92 M76.42 122.31 C113.05 76.49, 150.17 34.31, 178.36 -1.39 M80.95 118.31 C119.64 71.86, 166.04 23.81, 182.35 2.58 M80.32 120.11 C105.13 89.2, 133.52 59.97, 184.68 0.02 M88.38 123.94 C118.01 86.52, 146.87 51.85, 189.72 2.83 M84.11 120.82 C114.93 85.61, 145.32 53.25, 189.44 -1.02 M94.32 121.49 C114.6 100.39, 137.44 76.44, 199.07 -4.11 M93.2 122.21 C129.95 78.05, 168.79 35.28, 196.62 -2.05 M95.97 123.95 C137.86 78.84, 174.68 27.4, 201.94 1.91 M97.81 118.89 C126.53 85.04, 156.64 47.24, 199.5 -0.28 M105.74 118.19 C142.86 77.1, 174.82 39.19, 204.08 -0.08 M102.74 119.76 C130.48 85.84, 164.15 51.45, 206.48 0.84 M105.02 120.01 C132.53 91.01, 164.19 65.68, 211.22 -1.13 M106.61 121.51 C144.49 80.8, 178.88 39.18, 212.27 1.19 M111.74 121.86 C138.55 92.71, 162.88 65.18, 217.32 0.6 M110.99 122.86 C153.73 72.65, 196.97 22.56, 215.63 1.41 M121.44 120.08 C159.96 71.95, 197.24 31.65, 222.26 -1.11 M118.86 122.37 C154.19 74.14, 195.48 26.69, 222.7 0.46 M120.29 118.18 C147 86.42, 182.09 48.3, 228.2 -1.62 M121.24 120.1 C150.26 85.14, 179.24 54.38, 228.66 1.11 M128.67 122.59 C152.29 91.36, 176.98 68.3, 233.23 -2.33 M130.17 119.94 C150.6 94.5, 174.45 67.17, 233.03 -0.61 M130.93 117.61 C161.41 92.6, 186.09 62.38, 235.02 0.97 M134.05 123.07 C172.09 78.1, 213.2 30.68, 236.75 -1.09 M135.64 124.49 C164.09 89.37, 190.01 64.89, 243.82 -2.59 M139.36 121.44 C174.14 81.9, 208.1 39.64, 244.72 0.55 M145.34 120.35 C169.93 95.14, 186 70.43, 247.5 4.29 M141.91 119.35 C181.55 77.52, 215.37 38.46, 248.32 0.27 M152.79 121.22 C173.98 94.63, 196.06 60.08, 255.19 -1.2 M148.56 118.84 C189.29 76.39, 228.82 27.24, 254.51 -0.7 M150.7 117.08 C190.46 82.47, 218.19 45.19, 258.93 -2.95 M152.52 121.28 C182.58 89.69, 209.35 56.72, 261.06 1.67 M160.03 122.74 C200.87 79.45, 233.19 32.52, 262.03 1.04 M159.09 120.84 C194.49 81.52, 223.86 43.89, 266.35 -0.29 M167.68 121 C199.11 79.17, 236.43 40, 272.73 -2.3 M164.88 121.97 C196.24 79.12, 231.98 41.96, 268.57 -0.44 M170.8 121.49 C205.5 75.9, 243.4 41.38, 276.52 1.83 M171.57 120.92 C199.58 88.29, 224.82 58.33, 275.49 -1.37 M178.47 119.8 C204.09 84.85, 243.72 47.68, 277.83 -0.83 M177.18 119.24 C201.66 87.25, 232.14 55.36, 279.7 -0.85 M184.02 124.41 C211.27 87.94, 237.37 57.96, 288.34 -2.65 M181.83 121.28 C206.35 91.13, 226.16 66.31, 284.38 1.64 M182.74 123.7 C208.63 99.18, 234.13 73.55, 288.67 0.92 M186.92 119.69 C223.27 77.65, 257.88 39.42, 290.54 -1.57 M192.14 120.95 C224.06 78.61, 265.34 33.04, 296.67 -1.69 M192.98 120.9 C220.67 87.88, 246.38 58.47, 298.75 -0.9 M197.68 117.36 C235.43 77.31, 275.22 34.69, 305.16 0.89 M198.82 122.65 C234.74 78.64, 272.48 33.15, 300.44 0.09 M205.07 123.05 C228.25 87.59, 257.11 63.01, 310.19 -2.1 M203.35 119.48 C221.84 92.15, 248.37 64.89, 307.58 -1.92 M209.97 124.01 C231.06 90.84, 254.52 65.74, 312.75 3.52 M208.83 120.22 C235.49 88.95, 264.91 57.46, 311.99 -0.4 M210.25 117.15 C247.19 81.62, 277.51 47.23, 315.07 -4.19 M214.56 121.5 C236.75 92.87, 259.5 66.21, 319.08 -1.56 M215.78 117.32 C250.19 86.4, 284.71 44.16, 322.36 3.76 M220.2 121.24 C252.55 79.46, 289.66 36.56, 323.06 1.19 M219.96 120.97 C255.14 83.98, 283.53 42.37, 331.01 -1.75 M222.8 120.92 C249.24 90.89, 275.21 62.5, 328.73 0.75 M228.79 117.49 C250.5 94.66, 277.56 64.57, 330.42 3.06 M227.38 119.29 C268.53 72.34, 309.75 25.87, 334.73 1.81 M233.92 124.43 C261.49 80.33, 296.78 48.41, 339.17 1.89 M233.46 122.19 C259.01 93.22, 282.28 63.97, 339.25 -1.65 M240.19 119.23 C273.51 85.9, 300.69 45.12, 342.85 1.36 M240.11 120.72 C281.49 77.64, 324.58 28.04, 343.35 -0.82 M243.42 118.24 C280.46 77.53, 324.16 34.55, 345.59 2.71 M245.25 120.79 C270.8 96.15, 292.75 69.22, 347.96 2.1 M250.65 123.71 C289.7 82.26, 323.83 40.81, 359.1 -2.9 M251.36 120.61 C292.72 72.03, 332.73 27.78, 356.51 -0.24 M257.89 122.83 C288.41 81.4, 326.14 45.2, 359.75 0.87 M256.76 120.19 C284.67 85.94, 314.24 53.95, 361.4 1.33 M262.36 122.65 C279.6 99.28, 302.67 73.65, 358.84 9.28 M261.34 118.81 C286.1 86.31, 316.82 53.3, 359.83 4.81 M264.25 117.16 C302.49 81.59, 329.8 45.74, 364.17 9.42 M265.83 120.59 C296.16 89.11, 321.31 57.76, 360.87 12.44 M270.99 122.24 C310.28 81.26, 336.62 44.7, 359.85 18.08 M269.54 119.91 C303.92 82.38, 335.64 43.22, 358.74 19.04 M274.94 118.67 C292.66 104.73, 311.59 79.31, 356.55 22.95 M277.58 122.96 C293.75 101.71, 309.41 84.01, 360.61 23.71 M281.72 119.16 C303.93 89.98, 329.88 69.56, 356.61 33.91 M282.66 121.23 C296.5 102.81, 313.69 81.77, 361.14 31.63 M287.89 119.31 C305.57 108.19, 316.67 88.46, 357.55 38.69 M288.33 121.02 C313.65 87.71, 342.29 54.53, 359.58 36.23 M293.23 116.62 C317.44 93.22, 336.22 69.94, 361.89 41.96 M290.7 120.89 C306.93 106.8, 320.94 90.11, 358.99 44.78 M294.52 117.52 C312.11 101.56, 321.76 90.87, 356.7 53.06 M297.7 121.23 C315.43 104.62, 330.57 84.63, 359.35 48.59 M305.71 124.31 C321.31 106.7, 334.3 84.1, 358.64 57.19 M302.86 121.71 C327.2 96.79, 347.36 71.21, 360.12 56.73 M311.76 118.24 C320.51 101.91, 339.07 87.35, 362.99 58.76 M308.53 122.8 C323.38 107.57, 333.32 91.6, 358.71 61.87 M312.83 118.43 C333.4 101.14, 346.67 79.33, 363.27 69.04 M315.63 119.28 C331.17 100.93, 346.59 78.53, 359.64 66.43 M318.05 116.92 C336.69 105.44, 351.07 85.79, 360.95 73.24 M318.92 121.71 C329.32 108.84, 342.16 95.27, 361.73 72.17 M325.77 121.67 C342.12 106.92, 353.79 84.67, 361.07 82.2 M324.72 121.95 C336.91 107.2, 350.11 91.43, 359.23 78.35 M333.31 123.51 C338.26 111.78, 344.78 97.77, 361.26 87.69 M330.21 122.66 C334.59 115.1, 340.45 106.73, 360.36 83.57 M332.55 123.98 C339.06 109.88, 355.07 105.31, 356.77 89.62 M336.45 119.55 C344.49 110.92, 352.79 99.49, 361.81 91.45 M338.98 122.46 C344.31 115.25, 354.17 104.82, 360.08 99.81 M339 119.12 C344.99 114.29, 352.07 109.04, 361.85 96.92 M348.68 119.54 C349.41 115.09, 358.64 110.66, 362.65 100.99 M346.36 120.43 C350.19 114.72, 352.98 110.31, 359.57 103.7 M350.23 120.72 C355.43 117.92, 352.69 118.19, 361.72 107.65 M349.64 121.15 C352.82 118.28, 353.47 116.92, 360 110.46 M356.28 120.5 C358.82 118.64, 358.73 117.96, 360.65 115.82 M355.61 120.71 C356.86 119.22, 358.76 118.29, 360.47 116.28" stroke="#228be6" stroke-width="0.5" fill="none"></path><path d="M-0.74 -0.29 C84.5 -4.62, 170.19 -4.65, 357.56 1.36 M0.14 -1.14 C89.6 -3.84, 181.18 -2.25, 361.2 0.75 M356.81 0.3 C361.56 28.53, 358.81 61.15, 362.95 116.63 M360.63 0.36 C360.37 43.69, 362.16 89.14, 358.62 119.89 M358.74 120.63 C270.37 116.54, 180.01 116.37, 0.65 118 M360.77 119.21 C222.59 125.33, 84.55 123.16, -0.89 120.91 M1.78 117.74 C-2.96 80.85, -1 39.72, -0.92 -0.93 M1.36 121.87 C-3.29 96.13, -1.35 70.62, 0.77 -1.98" stroke="#000000" stroke-width="1" fill="none"></path></g><g transform="translate(1010 1189.396249553105) rotate(0 72.5 20)"><text x="0" y="28" font-family="Virgil, Segoe UI Emoji" font-size="31.76470588235294px" fill="#000000" text-anchor="start" style="white-space: pre;" direction="ltr">controller</text></g><g stroke-linecap="round" transform="translate(910 929.396249553105) rotate(0 180 60)"><path d="M0 0 C0 0, 0 0, 0 0 M0 0 C0 0, 0 0, 0 0 M-1.18 7.71 C1.18 4.59, 3.6 3.78, 4.5 0.37 M0.25 5.68 C1.25 5.01, 2.14 3.16, 4.89 1 M2.87 9.73 C1.32 11.56, 5.9 5.05, 13.05 -3.04 M-0.08 11.91 C4.51 9.01, 5.08 6.69, 12.02 -1.33 M3.51 17.41 C8.51 14.71, 13.18 2.73, 19.2 -3.14 M-1.83 17.5 C3.88 11.63, 8.21 5.06, 13.63 -1.42 M-2.3 25.32 C5.03 15.47, 19.51 7.11, 22.15 1.38 M-1.27 24.37 C7.08 18.3, 10.59 12.24, 22.93 1.22 M3.53 28.69 C8.54 18.46, 18.51 15.47, 24.22 -1.28 M-1.82 31.18 C5.62 24.3, 13.68 12.8, 24.97 0.16 M2.93 39.96 C7.5 29.28, 19.24 12.58, 31.36 2.71 M0.06 38.66 C7.49 24.82, 18.53 12.26, 32.53 -1.98 M3.43 43.48 C11.64 28.81, 27.58 15.76, 39.48 3.13 M1.38 43.35 C7.98 34.44, 17.93 24.52, 37.72 -0.21 M3.21 46.76 C16.79 31.43, 32.08 15.36, 38.72 0.64 M-0.87 47.34 C13.43 34.12, 28.04 14.65, 41.75 -1.79 M2.64 52.21 C15.94 36.13, 28.32 24.86, 47.18 -2.18 M-0.62 56.49 C8.25 40.63, 19.99 30.94, 46.13 -0.67 M-1.92 64.17 C12.19 43.62, 31.17 24.55, 51.17 2.12 M0.53 61.99 C19.65 37.75, 36.07 14.52, 54.45 0 M1.44 68.59 C17.8 44.27, 46.76 19.24, 54.99 0.95 M-1.62 66.56 C17.71 50.74, 31.71 28.81, 59.64 1.36 M-2.78 76.37 C15.66 55.4, 28.89 34.66, 61.13 -3.41 M0.71 74.21 C15.88 54.12, 33.32 32.53, 65.72 -1.65 M3.56 78.55 C18.77 56.98, 31.65 38.86, 72.08 -2.75 M1.77 80.02 C20.15 55.93, 39.79 33.26, 67 1.22 M3.81 82.07 C17.24 61.2, 39.79 34.67, 70.54 -4 M-0.6 84.34 C30.81 51.07, 56.24 19.92, 73.91 0.98 M-3.72 92.8 C17.97 72.81, 37.57 51.68, 77.15 1.89 M-1.74 90.34 C28.88 56.55, 58.99 19.93, 80.18 -1.01 M-2.14 95.22 C20.29 71.72, 43.21 48.84, 82.81 2.8 M-1.07 98.22 C17.58 75.82, 34.15 54.63, 84.62 0.36 M1.03 103.77 C21.53 79.19, 37.72 58.52, 90.37 -3.43 M0.44 102.98 C30.26 71.36, 57.52 38.55, 90.38 -0.48 M2.88 110.01 C33.68 66.42, 67.41 30.68, 94.89 1.92 M-1.19 108.18 C32.74 68.38, 66.92 28.38, 94.69 -2.31 M0.74 118.41 C42.47 74.35, 73.31 31.91, 101.42 1.49 M0.15 116.15 C29.45 79.26, 60.3 48.06, 100.1 0.4 M2.54 120.62 C44.78 75.74, 81.58 27.84, 105.2 0.82 M0.54 120.81 C26.6 94.38, 49.62 63.87, 108.23 -1.04 M9.74 119.38 C33.33 87.09, 70.48 52.58, 109.47 3.35 M6.4 122.04 C40.63 83.17, 77.58 40.82, 111.05 -0.03 M15.21 117.18 C36.35 95.51, 65.49 61.19, 113.02 -1.81 M10 120.88 C39.08 85.86, 68.62 50.45, 115.92 -0.39 M20.65 120.13 C54.47 71.6, 101.34 28.72, 123.22 3.34 M16.23 121.86 C52.07 81.2, 86.02 42.41, 120.2 1.32 M25.72 118.22 C47.54 95.36, 71.34 70.05, 129.08 -3.03 M21.34 119.82 C46.37 93.36, 68.43 68.63, 125.68 1.62 M24.3 120.38 C52.11 90.71, 79.25 58.49, 128.83 1.15 M26.64 121.37 C70.61 78.16, 110.28 31.89, 131.77 0.29 M30.26 121.43 C71.45 74.32, 115.98 24.86, 139.67 0.86 M33.78 122.45 C67.32 79.35, 103.22 38.37, 138.7 1.94 M41.64 121.09 C59.07 98.96, 82.61 65.57, 145.99 2.98 M38.48 121.77 C61.92 90.48, 86.47 65.22, 141.25 1.46 M42.5 123.01 C83.44 79.46, 120.85 28.63, 149.2 3.31 M41.79 122.36 C67.57 90.54, 90.05 63.79, 148.06 1.55 M47.08 121.7 C91.88 74.64, 132.52 26.11, 155.88 -2.47 M47.84 121.03 C82.06 86.19, 112.04 52.97, 155.35 -1.82 M53.62 117.64 C89.67 84.99, 121.27 43.64, 155.62 -3.75 M55.09 121.9 C82.32 84.27, 115.46 50.53, 158.13 2.15 M56.56 120.16 C102.54 68.36, 139.67 25.38, 165.18 -4.02 M58.08 121.87 C96.9 80.62, 135.14 36.93, 164.04 0.54 M64.31 122.53 C104.14 72.76, 148.41 28.26, 166.34 2.14 M62.66 120.16 C105.54 77.76, 145.69 28.02, 168.5 -1.78 M71.5 120.9 C97.7 86.26, 131.45 52.41, 174.07 0.05 M71.79 119.76 C102.02 84.9, 133.65 50.18, 176.54 -0.63 M76.74 121.36 C103.51 85.14, 134.21 54.26, 182.3 1.93 M76.72 120.97 C113.64 75.7, 149.4 28.61, 182.01 0.97 M78.84 118.88 C109.69 89.72, 129.96 63.86, 184.22 1.91 M78.81 118.9 C101.3 97.47, 122.61 72.42, 185.34 -1.73 M86.6 120.34 C114.57 83.24, 143.78 52.22, 189.94 -0.95 M84.74 120.93 C125.78 78.63, 162.88 31.83, 188.77 -1.64 M91.01 123.54 C114.46 96.3, 140.02 61.24, 198.82 0.27 M92.26 120.26 C114.68 92, 137.09 62.06, 198.15 1.58 M99.05 124.17 C117.13 92.92, 141.33 70.27, 201.17 3.45 M97.44 121.37 C128.87 82.08, 161.16 43.85, 202.12 -0.89 M105.93 118.82 C134.47 83.43, 166 42.3, 206.54 0.33 M100.46 121.55 C138.05 82.34, 171.05 41.3, 205.94 -1.61 M104.8 120.02 C137.63 95.12, 159.73 59.88, 213.43 -0.42 M108.8 120.39 C134.09 89.02, 159.45 61.73, 210.67 0.68 M114.38 119.93 C138.34 92.62, 160.67 65.56, 221.57 -2.23 M110.37 122.01 C148.3 77.61, 182.61 38.98, 218.94 -1.47 M120 117.61 C154.2 78.56, 190.63 32.98, 225.65 2.38 M116.04 120.82 C153.56 74.31, 190.82 33.73, 222.24 1.29 M118.6 122.3 C164.11 75.37, 201.88 31.84, 227.59 2.79 M122.15 119.32 C152.65 89.82, 184.44 54.97, 226.62 0.6 M130.34 117.13 C159.1 88.14, 182.87 54.34, 230.26 1.3 M127.63 122.26 C158.97 84.47, 192.9 43.72, 231.96 -0.09 M136.36 122.14 C173.26 81.3, 202.96 41.28, 241.11 0.85 M133.24 122.21 C161.04 86.9, 184.48 55.83, 237.05 0.69 M139.01 117.27 C165.74 92.1, 189.5 60.15, 245.19 0.28 M139.3 121.04 C163.29 88.8, 190.48 61.5, 242.15 0.24 M147.6 121.38 C172.47 85.9, 206.33 51.01, 250.14 -2.38 M144.97 119.4 C186.08 76.48, 225.48 31.07, 247.51 1.38 M150.68 123.22 C179.21 78.68, 214.29 43.27, 257.86 1.78 M150.01 122.25 C178.73 88.78, 207.57 56.53, 254.43 -1.25 M157.74 120.47 C197.89 73.6, 239.12 24.55, 258.19 -0.43 M153.97 120.35 C177.62 93.44, 203.86 69.94, 260.56 0.27 M163.53 122.69 C191.58 79.64, 223.1 44.8, 265.21 -1.28 M161.99 119.74 C200.61 72.71, 242.21 28.71, 265.63 0.66 M165.72 118.36 C197.27 84.06, 226.4 49.22, 270.95 2.88 M164.06 119.28 C204.41 76.14, 240.05 31.68, 270.69 -1.06 M169.24 117.86 C214.23 74.69, 255.11 25.97, 273.67 -1.44 M172.72 120.1 C211.36 73.27, 250.48 25.95, 275.86 -0.07 M171.96 120.49 C202.14 92.92, 220.03 64.39, 279.59 2.24 M174.35 119.14 C201.34 91.07, 226.6 60.05, 279.61 -0.26 M184.99 117.44 C214.88 79.25, 243.96 44.56, 283.16 -0.75 M182.9 118.65 C215.29 78.01, 251.31 38.34, 284.47 -0.72 M186.39 122.81 C218.05 91.17, 236.99 61.45, 292.79 -1.14 M187.18 119.67 C224.37 79.01, 261.99 31.81, 292.3 1.76 M189.46 120.61 C225.74 80.5, 254.78 46.2, 295.12 -2.77 M192.53 119.5 C227.17 78.13, 265.98 35.1, 298.04 -1.83 M196.44 119.77 C229.54 86.23, 261.29 52.75, 304.74 0.43 M196.16 121.31 C214.9 93.32, 237.17 68.52, 300.97 0.83 M202.83 117.08 C232 89.13, 259.78 52.87, 304.48 3.44 M200.82 119.49 C237.7 80.4, 270.67 40.64, 306.44 0.82 M207.05 120.3 C237.12 84.33, 272.99 45.99, 311.11 -2.85 M206.12 121.28 C241.07 82.44, 274.68 41.54, 313.11 1.54 M214.78 119.04 C235 100.1, 256.39 67.17, 315.66 3.34 M214.24 120.2 C236.83 90.85, 264.74 58.08, 318.75 0.18 M216.64 123.86 C241.14 96.71, 264.06 74.39, 325.09 1.71 M217.18 121.56 C248.48 82.21, 281.52 45.86, 323.43 1.24 M223.83 121.94 C254.81 79.77, 294 43.24, 326.59 -3.15 M221.86 120.72 C255.98 83.88, 290.16 46.05, 327.32 -2.01 M225.14 120.38 C254.93 88.94, 277.49 65.75, 337.34 1.3 M228.67 120.84 C271.46 76.24, 312.33 31.26, 333.91 2.02 M231.98 117.46 C269.14 81.63, 301.13 43.91, 336.71 -1.56 M233.97 122.64 C272.4 75.44, 312.08 29.11, 339.75 0.69 M241.98 122.32 C260.98 91.29, 287.5 65.38, 348.06 -2.38 M239.19 122.61 C262.13 95.43, 280.48 70.73, 345.76 -1.29 M240.74 122.05 C281.67 84.53, 310.7 45.12, 346.29 -2.19 M246.12 122.56 C274.55 87.5, 303.1 53.04, 350.24 0.27 M254.09 124.62 C291.61 77.36, 332.19 26.15, 358.92 -1.13 M250.6 119.08 C275.99 90.1, 306.67 55.55, 355.47 -1.1 M253.81 117.92 C279.11 93.19, 298.18 68.87, 359.07 -3.13 M253.8 121.06 C294.28 75.23, 337.72 27.27, 358.19 -0.83 M257.9 120.73 C279.78 94.46, 298.35 76.85, 359.86 9.78 M259.99 119.2 C293.39 84.25, 322.7 48.67, 361.5 4.98 M268.35 117.75 C282.51 99.82, 308.68 76.05, 359.83 10.42 M267.73 119.48 C288.25 93.83, 311.94 69.09, 361.8 10.95 M275.34 118.59 C289.1 96.06, 312.83 71.72, 362.89 20.3 M271.7 120.69 C300.66 87.58, 328.72 56.44, 358.18 18.78 M275.05 124.75 C300.97 93.06, 321.11 65.52, 356.49 26.82 M277.88 119.92 C293.6 99.21, 311.97 76.73, 360.16 24.98 M281.85 116.64 C312.14 91.97, 332.26 62.65, 356.75 34.58 M281.33 122.02 C303.62 93.99, 327.55 69.15, 358.28 30.6 M290.09 124.59 C301.56 104.64, 315.77 86.95, 363.99 37.02 M285.46 121.2 C310.52 90.84, 336.92 61, 361.13 35.49 M294.34 119.83 C315.34 95.09, 343.69 64, 356.48 39.56 M291.74 122.41 C311.71 100.44, 329.62 80.14, 358.63 43.79 M299.14 117.49 C316.18 100.67, 335.32 80.03, 358.09 47.22 M298.96 122.93 C318.08 98.16, 336.49 74.68, 359.13 50.19 M307.25 123.61 C322.09 96.92, 335.38 81.97, 363.25 51.95 M305.02 121.82 C324.46 96.73, 343.76 75.23, 359.94 53.68 M305.39 118.14 C322.44 104.82, 337.95 87.07, 358.04 59.85 M310.1 121.44 C318.04 106.63, 328.74 95.21, 361.83 63.3 M316.51 121.92 C326.7 104.49, 346.15 89.56, 363.74 70.93 M314.51 120.95 C323.41 105.59, 336.38 92.72, 362.18 68.36 M321.52 123.73 C332.97 108.51, 345.25 92.35, 358.61 70.11 M317.85 121.82 C335.76 102.09, 351.93 83.09, 362.18 72.02 M327.55 123.21 C336.27 103.86, 348.09 96.65, 361.47 78.97 M324.82 121.29 C338.41 104.47, 348.54 90.06, 359.94 81.43 M329.7 121.96 C333.85 109.5, 344.67 105.6, 356.74 86.96 M328.43 121.92 C333.92 113.15, 341.88 104, 361.02 85.58 M330.64 119.18 C343.85 117.81, 342.26 106.29, 363.44 94.73 M335.13 121.79 C338.75 115.52, 347.03 108.24, 360.98 92.98 M337.62 123.02 C345.5 114.86, 349.59 111.88, 358.84 93.82 M339.32 120.31 C347.47 114.49, 353.87 106.76, 362.44 97.94 M343.52 121.76 C350 120.28, 354.3 110.37, 360.17 105.68 M345.86 119.92 C348.66 115.38, 353.69 110.34, 358.37 102.08 M353.36 119.96 C350.86 120, 356.76 113.41, 357.34 112.45 M351.11 120.48 C352.94 117.91, 356.77 114.32, 360.8 109.06 M357.09 120.62 C357.16 119.76, 359.69 116.93, 360.37 114.86 M355.42 120.79 C357.32 119.94, 358.6 118.52, 360.64 115.85" stroke="#228be6" stroke-width="0.5" fill="none"></path><path d="M-0.35 -2.18 C127.75 -1.69, 252.08 1.88, 358.74 1.65 M-0.44 -0.55 C135.01 5.15, 269.03 4.86, 359.29 1.11 M359.45 -0.72 C354.8 50.42, 361.04 92.17, 362.64 122.83 M358.67 -0.24 C361.22 47.33, 359.37 92, 358.96 118.61 M359.59 121.08 C286.33 122.04, 216.4 119.13, 2.07 118.11 M360 120.93 C216.63 115.9, 73.62 118.06, 0.51 120.13 M-2.72 121.7 C-1.83 91.95, -1.98 60.11, -3.65 2.18 M-1.98 121.18 C-1.67 73.75, -0.86 24.05, 0.23 1.59" stroke="#000000" stroke-width="1" fill="none"></path></g><g transform="translate(1030 969.396249553105) rotate(0 52.5 20)"><text x="0" y="28" font-family="Virgil, Segoe UI Emoji" font-size="31.76470588235294px" fill="#000000" text-anchor="start" style="white-space: pre;" direction="ltr">service</text></g><g stroke-linecap="round"><g transform="translate(721.0890983457475 839.4606459106462) rotate(89.99999999999994 -0.1967135079739819 129.73552966287434)"><path d="M-1.05 -1.16 C-0.77 42.04, 0.34 215.73, 0.65 259.4 M0.6 0.85 C0.87 44.18, 0.07 217.61, 0.04 260.63" stroke="#000000" stroke-width="1" fill="none"></path></g><g transform="translate(721.0890983457475 839.4606459106462) rotate(89.99999999999994 -0.1967135079739819 129.73552966287434)"><path d="M-12.07 233.48 C-8.91 239.84, -4.3 244.79, -1.77 259.93 M-9.2 233 C-7.85 240.44, -3.7 245.99, 0.11 260.49" stroke="#000000" stroke-width="1" fill="none"></path></g><g transform="translate(721.0890983457475 839.4606459106462) rotate(89.99999999999994 -0.1967135079739819 129.73552966287434)"><path d="M8.45 233.54 C7.22 239.7, 7.45 244.64, -1.77 259.93 M11.32 233.06 C7.41 240.65, 6.3 246.19, 0.11 260.49" stroke="#000000" stroke-width="1" fill="none"></path></g></g><g transform="translate(630.6245540290374 929.396249553105) rotate(0 102 12.5)"><text x="0" y="18" font-family="Virgil, Segoe UI Emoji" font-size="20px" fill="#000000" text-anchor="start" style="white-space: pre;" direction="ltr">use or/and implement</text></g><g stroke-linecap="round" transform="translate(870 589.3962495531048) rotate(0 220 359.9999999999999)"><path d="M-1.11 -0.66 C172.1 -0.58, 348.72 0.85, 440.26 -0.55 M-0.53 0.06 C109.63 -1.02, 218.69 -0.54, 439.6 0.85 M438.62 -1.26 C440.95 170.85, 442.99 343.65, 440.12 719.65 M440.23 0.29 C443.88 144.7, 443.41 288.8, 440.65 720 M441.06 719.69 C291.28 720.9, 141.54 720.75, 0.4 720.6 M440.15 719.16 C295.32 723.61, 150.48 722.81, 0.5 720.08 M1.21 719.01 C-1.34 450.37, -0.77 184.31, -0.93 1.5 M-0.5 719.53 C-0.04 456.47, -0.94 192.33, -0.77 0.26" stroke="#000000" stroke-width="1" fill="none"></path></g><g stroke-linecap="round" transform="translate(90 449.3962495531048) rotate(0 630 450.0000000000001)"><path d="M0.19 1.51 C313.87 9.27, 623.95 8.32, 1258.87 0.46 M-0.22 -0.42 C486.37 -1.03, 971.28 -1.26, 1260.55 0.42 M1261.36 -0.99 C1267.65 342.9, 1265.8 683.85, 1259.3 899.59 M1259.83 -0.79 C1265.65 345.63, 1265.35 690.4, 1260.14 899.98 M1259.99 900.66 C932.88 908.97, 608.33 907.96, 1.18 899.06 M1260.24 900.24 C761.27 902.58, 261.48 901.36, 0.22 900.49 M0.12 901.17 C1.59 597.34, 2.59 292.4, -0.61 -1.1 M0.75 900.53 C-6.09 632.79, -6.62 364.66, 0.17 0.46" stroke="#000000" stroke-width="1" fill="none"></path></g><g transform="translate(630 510) rotate(0 83 20)"><text x="0" y="28" font-family="Virgil, Segoe UI Emoji" font-size="31.764705882352942px" fill="#000000" text-anchor="start" style="white-space: pre;" direction="ltr">&lt;domain Y&gt;</text></g><g stroke-linecap="round" transform="translate(90 1449.396249553105) rotate(0 630 80)"><path d="M1.48 -0.5 C449.92 8.63, 901.06 9.35, 1259.14 -1.38 M-0.09 -0.29 C320.18 4.85, 640.61 4.63, 1259.51 -0.79 M1257.49 -1.96 C1261.8 58.97, 1257.66 123.36, 1260.8 163.13 M1258.95 -1.59 C1255.87 31.94, 1256.98 68.25, 1259.24 160.68 M1259.32 159.94 C923.27 161.49, 590.21 160.25, 0.18 160.79 M1259.27 159.36 C921.34 158.06, 581.33 158.62, -0.51 159.57 M0.4 161.71 C-4.92 122.07, -6.23 75.11, -1.85 -2.04 M1.22 160.03 C3.33 111.34, 2.48 59.26, 1.13 -1.87" stroke="#000000" stroke-width="1" fill="none"></path></g><g transform="translate(630 1509.396249553105) rotate(0 87.5 20)"><text x="0" y="28" font-family="Virgil, Segoe UI Emoji" font-size="31.764705882352942px" fill="#000000" text-anchor="start" style="white-space: pre;" direction="ltr">&lt;domain Z&gt;</text></g><g stroke-linecap="round"><g transform="translate(610.817034565797 1370.3994768614975) rotate(0 -0.024763261516454804 29.80329116604753)"><path d="M0.42 -1 C0.6 8.82, 0.82 49.22, 0.76 59.39 M-0.82 1.08 C-0.74 11.02, 0.04 50.57, 0.03 60.61" stroke="#000000" stroke-width="1" fill="none"></path></g><g transform="translate(610.817034565797 1370.3994768614975) rotate(0 -0.024763261516454804 29.80329116604753)"><path d="M-12.2 33.22 C-8.54 39.67, -4.62 47.98, -1.6 59.68 M-9.8 31.81 C-6.92 40.86, -3.08 51.01, -0.76 61.22" stroke="#000000" stroke-width="1" fill="none"></path></g><g transform="translate(610.817034565797 1370.3994768614975) rotate(0 -0.024763261516454804 29.80329116604753)"><path d="M8.32 33.01 C6.35 39.58, 4.62 47.95, -1.6 59.68 M10.72 31.6 C7.15 40.57, 4.54 50.8, -0.76 61.22" stroke="#000000" stroke-width="1" fill="none"></path></g></g><g transform="translate(630.0898788361126 1389.237516668355) rotate(0 99.5 12.5)"><text x="0" y="18" font-family="Virgil, Segoe UI Emoji" font-size="20px" fill="#000000" text-anchor="start" style="white-space: pre;" direction="ltr">use or/and implement</text></g><g stroke-linecap="round"><g transform="translate(850.7719335659035 1370.4158276171793) rotate(180 0.40190045530096086 30)"><path d="M0.6 -0.32 C0.49 9.54, -0.73 49.91, -0.69 60.18 M-0.55 -1.53 C-0.28 9.02, 1.35 51.39, 1.5 61.53" stroke="#000000" stroke-width="1" fill="none"></path></g><g transform="translate(850.7719335659035 1370.4158276171793) rotate(180 0.40190045530096086 30)"><path d="M-10.09 32 C-6.63 42.66, -1.53 50.68, 0.23 60.19 M-9.13 34.04 C-7.2 38.22, -4.26 45.58, 1.53 62.48" stroke="#000000" stroke-width="1" fill="none"></path></g><g transform="translate(850.7719335659035 1370.4158276171793) rotate(180 0.40190045530096086 30)"><path d="M10.42 31.42 C7.86 42.35, 6.93 50.54, 0.23 60.19 M11.39 33.46 C9.21 37.8, 8.05 45.27, 1.53 62.48" stroke="#000000" stroke-width="1" fill="none"></path></g></g><g transform="translate(310 1509.396249553105) rotate(0 32.558823529411825 19.852941176470495)"><text x="0" y="27.705882352941195" font-family="Virgil, Segoe UI Emoji" font-size="31.764705882352942px" fill="#000000" text-anchor="start" style="white-space: pre;" direction="ltr">core</text></g><g stroke-linecap="round" transform="translate(130 1489.396249553105) rotate(0 220 40)"><path d="M1.14 -0.66 C145.66 -1.77, 291.26 0.24, 439.05 -0.57 M0.53 -0.43 C149.34 -4.5, 297.76 -3.56, 440.73 0.27 M441.79 -2.88 C441.21 25, 441.15 57.32, 443.11 79.25 M439.63 -0.37 C439.09 25.85, 438.76 53.2, 441.45 78.57 M439.82 81.19 C336.64 77.78, 232.01 77.03, 1.35 81.56 M439.67 79.36 C305.02 78.25, 170.91 78.38, 0.24 80.11 M-3.09 78.67 C1.64 54.89, 2.21 27.59, -3.91 3.01 M0.74 79.62 C0.09 61.07, -0.01 43.59, -0.2 0.78" stroke="#000000" stroke-width="1" fill="none"></path></g><g transform="translate(1030 1509.396249553105) rotate(0 62.5 20)"><text x="0" y="28" font-family="Virgil, Segoe UI Emoji" font-size="31.764705882352942px" fill="#000000" text-anchor="start" style="white-space: pre;" direction="ltr">adapter</text></g><g stroke-linecap="round" transform="translate(870 1489.396249553105) rotate(0 220 40)"><path d="M1.69 -1.58 C104.77 1.83, 210.86 0.36, 439.84 1.57 M-0.05 -0.76 C163.93 1.27, 328.71 0.52, 440.64 0.11 M441.79 -1.39 C437.11 17.61, 442.48 39.7, 440.44 83.52 M441.17 -1.25 C439.51 23.22, 440.95 49.23, 441.8 79.45 M440.82 80.81 C329.91 83.58, 218.48 85.08, -1.07 81.4 M440.15 79.09 C343.49 77.42, 245.02 78.25, -0.71 79.18 M2.99 79.05 C-3.23 48.78, 2.35 15.63, -1.82 2.49 M-1.68 79.46 C1.13 63.47, 0.52 43.96, 1.35 -0.27" stroke="#000000" stroke-width="1" fill="none"></path></g><g stroke-linecap="round" transform="translate(90 190) rotate(0 630 80)"><path d="M0.29 -1.15 C468.83 -6.43, 939.59 -7.96, 1258.72 -1.59 M-0.66 0.15 C399.63 6.32, 800.11 6.67, 1260.53 -0.65 M1259.98 0.73 C1260.96 38.93, 1259.73 76.78, 1262.03 159.11 M1258.84 0.05 C1263.18 33.14, 1262.98 63.41, 1260.19 162 M1261.03 159.81 C872.41 156.15, 484.72 153.5, 0.91 160.45 M1260.29 160.3 C880.06 152.9, 500.21 153.2, -0.63 159.34 M-3.22 157.07 C-0.35 105.04, 1.13 53.87, 0.89 -3.01 M-1.24 160.23 C-1.24 105.38, -2.35 51.56, -1.09 1.82" stroke="#000000" stroke-width="1" fill="none"></path></g><g transform="translate(630 250) rotate(0 84 20)"><text x="0" y="28" font-family="Virgil, Segoe UI Emoji" font-size="31.764705882352942px" fill="#000000" text-anchor="start" style="white-space: pre;" direction="ltr">&lt;domain X&gt;</text></g><g stroke-linecap="round"><g transform="translate(610.8642780989408 371.0032273083925) rotate(0 0.009279535417476836 29.55221973187747)"><path d="M-0.86 -0.37 C-0.88 9.71, 0.64 50.81, 0.71 60.71 M0.88 -1.61 C0.67 8.11, -0.24 48.72, -0.04 58.96" stroke="#000000" stroke-width="1" fill="none"></path></g><g transform="translate(610.8642780989408 371.0032273083925) rotate(0 0.009279535417476836 29.55221973187747)"><path d="M-10.78 31.34 C-5.2 39.91, -4.26 49.63, 0.31 59.26 M-10.91 29.79 C-8.47 36.71, -5.08 42.88, -0.61 59.61" stroke="#000000" stroke-width="1" fill="none"></path></g><g transform="translate(610.8642780989408 371.0032273083925) rotate(0 0.009279535417476836 29.55221973187747)"><path d="M9.74 31.44 C7.76 39.82, 1.13 49.51, 0.31 59.26 M9.62 29.89 C7.33 36.82, 6 42.97, -0.61 59.61" stroke="#000000" stroke-width="1" fill="none"></path></g></g><g transform="translate(630.1371223692563 389.84126711525005) rotate(0 99.5 12.5)"><text x="0" y="18" font-family="Virgil, Segoe UI Emoji" font-size="20px" fill="#000000" text-anchor="start" style="white-space: pre;" direction="ltr">use or/and implement</text></g><g stroke-linecap="round"><g transform="translate(850.819177099047 371.0195780640752) rotate(180 0.4619498796184871 30.311680126637157)"><path d="M0.37 0.71 C0.43 10.7, -0.27 49.55, -0.48 59.55 M-0.89 0.04 C-0.37 10.18, 1.44 50.23, 1.82 60.58" stroke="#000000" stroke-width="1" fill="none"></path></g><g transform="translate(850.819177099047 371.0195780640752) rotate(180 0.4619498796184871 30.311680126637157)"><path d="M-8.42 31.54 C-8.69 37.14, -4.13 45.76, 0.42 58.94 M-10 32.35 C-5.51 40.99, -3.1 51.28, 2.49 60.58" stroke="#000000" stroke-width="1" fill="none"></path></g><g transform="translate(850.819177099047 371.0195780640752) rotate(180 0.4619498796184871 30.311680126637157)"><path d="M12.09 30.69 C7.14 36.55, 7.02 45.36, 0.42 58.94 M10.5 31.5 C8.46 40.21, 4.33 50.78, 2.49 60.58" stroke="#000000" stroke-width="1" fill="none"></path></g></g><g transform="translate(310 250) rotate(0 32.558823529411825 19.85294117647061)"><text x="0" y="27.705882352941195" font-family="Virgil, Segoe UI Emoji" font-size="31.764705882352942px" fill="#000000" text-anchor="start" style="white-space: pre;" direction="ltr">core</text></g><g stroke-linecap="round" transform="translate(130 230) rotate(0 220 40)"><path d="M-1.6 -1.99 C145.93 3.16, 289.76 1.22, 440.38 -1.47 M0.66 -0.81 C90.33 2.81, 182.48 2.16, 440.18 -0.27 M442.03 -0.89 C435.19 25.9, 440.56 45.93, 440.1 83.52 M440.19 2 C441.39 24.73, 440.22 54.51, 439.77 79.22 M441.13 80.57 C271.4 74.97, 101.23 77.11, 0.75 79.88 M439.21 79.18 C282.15 84.52, 123.07 83.5, -0.73 80.09 M0.89 76.99 C0.9 60.74, -1.21 32.11, 0.47 3.02 M-1.09 81.82 C-0.24 54.9, 0.67 34.78, -0.76 1.73" stroke="#000000" stroke-width="1" fill="none"></path></g><g transform="translate(1030 250) rotate(0 62.5 20)"><text x="0" y="28" font-family="Virgil, Segoe UI Emoji" font-size="31.764705882352942px" fill="#000000" text-anchor="start" style="white-space: pre;" direction="ltr">adapter</text></g><g stroke-linecap="round" transform="translate(870 230) rotate(0 220 40)"><path d="M0.35 0.3 C102.02 2.73, 207.22 2.9, 438.13 -0.79 M-0.57 0.64 C111.05 3.55, 220.93 3.28, 440.02 -0.58 M436.12 1.78 C442.3 19.76, 440.91 47.7, 441.31 83.12 M440.14 -1.88 C439.12 19.05, 439.91 34.74, 441.67 78.3 M440.03 78.58 C342.69 81.98, 249.14 81.13, 1.19 79.95 M440.39 80.21 C264.49 75.59, 89.12 76.48, -0.16 80.45 M1.63 83.44 C-0.83 48.54, 0.11 25.05, -0.23 0.8 M0.08 78.43 C1.85 55.6, 0.11 29.24, -0.48 -0.55" stroke="#000000" stroke-width="1" fill="none"></path></g><g stroke-linecap="round" transform="translate(10 10) rotate(0 710 840)"><path d="M0.86 1.48 C482.64 3.27, 965.9 1.16, 1418.6 -1.02 M-0.11 -0.38 C539.26 -7.34, 1078.41 -6.3, 1420.58 -0.64 M1419.16 0.89 C1409.29 400.08, 1410.43 800.66, 1419.59 1681.57 M1420.35 -0.68 C1410.22 627.08, 1410.11 1256.12, 1420.03 1679.49 M1420 1681.36 C1084.55 1674.49, 749.89 1674.35, -0.81 1680.72 M1420.14 1679.37 C972.19 1672.7, 525.16 1672.18, 0.22 1680.63 M-0.23 1678.73 C-14.05 1072.43, -13.16 465.63, 1.5 1.12 M-0.3 1680.68 C-0.81 1167.58, -0.24 654.63, -0.57 0.76" stroke="#000000" stroke-width="1" fill="none"></path></g><g transform="translate(630 50) rotate(0 71 22.5)"><text x="0" y="32" font-family="Virgil, Segoe UI Emoji" font-size="36px" fill="#000000" text-anchor="start" style="white-space: pre;" direction="ltr">business</text></g></svg>