<svg version="1.1" xmlns="http://www.w3.org/2000/svg" viewBox="0 0 480 580" width="480" height="580">
  <!-- svg-source:excalidraw -->
  
  <defs>
    <style>
      @font-face {
        font-family: "Virgil";
        src: url("https://excalidraw.com/Virgil.woff2");
      }
      @font-face {
        font-family: "Cascadia";
        src: url("https://excalidraw.com/Cascadia.woff2");
      }
    </style>
  </defs>
  <rect x="0" y="0" width="480" height="580" fill="#ffffff"></rect><g stroke-linecap="round" transform="translate(110 10) rotate(0 180 60)"><path d="M0 0 C0 0, 0 0, 0 0 M0 0 C0 0, 0 0, 0 0 M-1.28 7.81 C1.46 5.19, 3.04 2.52, 6.4 0.75 M0.38 7.15 C0.79 4.9, 1.54 3.84, 5.51 0.39 M-1.54 9.95 C1.98 10.39, 3.06 4.14, 9.24 -0.28 M1.34 12.7 C2.97 9.05, 3.53 7.99, 10.06 -1.23 M2.03 17.76 C0.85 18.28, 5.2 10.32, 15.34 -2.14 M0.53 18.34 C3.82 14.32, 10.01 10.22, 13.97 0.96 M-3.17 26.09 C11.56 13.17, 17.62 9.42, 21.09 -3.62 M-0.4 22.96 C8.09 16.27, 13.08 10.8, 21.25 1.08 M-2.75 29.16 C4.54 20.79, 12.69 12.13, 27.57 4.11 M0.14 29.99 C9.21 18.58, 22.14 6.15, 26.7 -0.46 M1.93 37.88 C8.1 25.8, 25.06 11.96, 29.86 -1.72 M-1.29 38.51 C8.79 26.96, 12.76 19.51, 31.6 0.66 M3.48 39.51 C11.66 29.56, 20.27 19.3, 35.5 -3.68 M2.08 43.69 C12.69 28.73, 24.54 17.11, 37.29 -1.53 M2.67 49.76 C17.98 36.25, 29.69 20.67, 41.91 -0.28 M0.22 47.17 C13.39 30.98, 31.02 14.53, 43.32 0.71 M1.14 57.41 C18.51 38.73, 32.67 25.14, 47.22 1.92 M-0.16 53.81 C17.2 35.5, 31.92 17.22, 49.16 -1.05 M-3.76 64.19 C19.23 46.16, 35.05 26.38, 51.71 -3.8 M-1.97 61.78 C15.91 41.4, 31.59 21.47, 52.38 0.61 M-2.18 69.39 C16.33 49.3, 26.64 37.52, 60.62 -0.47 M-0.15 67.38 C14.28 52.1, 23.44 37.83, 58.33 -0.92 M2.29 74.01 C21 47.84, 48.34 14.32, 61.57 -3.56 M-0.73 71.32 C19.14 54.55, 34.46 34.98, 62.34 1.69 M2.88 80.89 C22.84 49.27, 52.43 24.52, 67.41 2.94 M-1.88 79.07 C20.65 52.98, 43.39 26.91, 67.4 -0.13 M2.28 83.28 C24.78 51.52, 52.11 22.79, 77.61 2.34 M1.66 83.67 C17.63 65.02, 35.73 44.25, 74.35 1.16 M3.55 92.81 C31.22 58.68, 63.16 16.59, 81.13 1.16 M-1.75 89.74 C26 62.08, 54.45 26.47, 79.56 -0.74 M-1.17 96.01 C31.37 69.22, 58.24 35.52, 81.77 -3.02 M-1.12 96.38 C28.15 63.96, 59.65 27.24, 85.15 -1.87 M3.5 102.5 C17.99 78.85, 39.73 60.15, 93.1 2.36 M0.14 105.38 C28.14 69.6, 57.82 35.18, 88.62 2.05 M-1.67 109.11 C35.98 72.08, 72.33 27.82, 91.79 -3.36 M1.16 111.64 C22.59 88.21, 43.44 60.75, 97.09 -0.35 M2.22 116.47 C23.76 85.59, 49.78 58.07, 100.48 -2.1 M1.22 115.89 C27.13 88.99, 54.11 58.92, 100.95 1.99 M3.69 120.19 C24.19 99.83, 41.86 72.69, 109.21 -1.23 M2.01 122.06 C40.29 72.13, 84.62 25.71, 108.09 -1.37 M4.92 123.65 C40.67 81.12, 79.05 36.22, 110.23 -1.65 M4.48 122.29 C31.9 91.6, 60.27 59.28, 109.54 -0.3 M12.8 119.5 C34.33 91.83, 60.22 73.29, 114.76 2.78 M10.72 120.59 C38.64 87.01, 65.68 58.18, 117.04 0.69 M13.42 122.43 C43.84 87.96, 74.97 47.77, 119.12 -2.57 M15.25 121.8 C53.49 74.85, 93.84 30.41, 119.96 0.74 M18.35 118.34 C55.78 77.96, 95.86 31.2, 122.92 2.99 M22.14 122.96 C56.4 79.42, 90.5 39.01, 128.35 -0.96 M26.04 120.19 C62.73 88.86, 91.72 46.71, 133.74 0.09 M27.17 121.33 C58.82 87.36, 86.27 54.03, 132.38 1.55 M32.67 119.9 C61.37 88.18, 82.69 61.29, 134.04 -2.81 M31.56 120.5 C57.22 96.9, 77.54 67.8, 138.1 1.11 M41.53 120.2 C74.56 86.78, 107.71 43.19, 142.5 2.43 M40.1 122.4 C71.3 83.55, 102.39 46.06, 143.56 -0.51 M41.91 118.54 C78.65 76.96, 123.8 34.54, 148.92 3.57 M42.89 121.44 C64.49 94.78, 92.53 64.69, 146.58 -0.55 M50.45 122.92 C82.01 82.79, 111.97 51.9, 151.59 3.76 M49.47 120.46 C91.04 73.14, 130.18 25.61, 152.85 -1.19 M50.04 119.81 C91.38 74.18, 126.45 38.41, 156.17 1.53 M54.58 120.91 C91.69 77.25, 127.04 36.49, 159.7 -1.48 M63.17 122 C99.7 77.73, 141.05 33.62, 165.05 2.57 M60.3 118.83 C97 80.26, 130.51 37.8, 164.21 0.7 M66.82 120.46 C100.8 78.46, 135.67 41.16, 168.23 -0.33 M65.73 118.96 C94.83 85.35, 125.43 48.6, 170.96 0.71 M73.86 124.26 C92.09 90.64, 116.47 62.07, 172.71 0.55 M69.21 118.77 C90.94 95.12, 112.55 69.26, 176.17 1.21 M71.85 120.42 C103.36 91.79, 126.58 67.03, 177.34 -0.24 M73.99 122.55 C93.51 96.53, 115.39 72.09, 179.44 0.27 M80.52 121.74 C124.2 76.7, 158.91 28.96, 186.22 -1.45 M82.41 121.43 C116.33 83, 147.19 45.05, 183.87 1.35 M82.53 118.79 C109.61 96.86, 131.78 73.19, 191.56 0.75 M85.62 119.52 C106.16 96.19, 130.7 71.55, 191.83 1.41 M88.95 119.65 C127.07 80.96, 159.24 51.07, 195.05 0.62 M89.72 121.87 C132.97 75.28, 171.16 28.31, 197.05 0.98 M94.06 117.89 C123.67 87.31, 152.3 56.37, 198.75 2.79 M97.49 120.63 C118.13 91.19, 144.85 62.73, 200.4 0.21 M100.78 124.38 C143.66 76.39, 183.8 22.85, 210.47 2.02 M102.54 119.05 C143.19 74.82, 183.72 29.03, 206.02 0.91 M107.48 119.2 C129.77 90.38, 154.68 71.41, 210.6 3.22 M107.04 121.57 C125.63 96.48, 149.43 71.08, 213.03 -1.34 M108.77 124.26 C146.81 82.86, 178.19 44.38, 221.56 1.17 M111.2 122.6 C150.72 74.38, 190.3 30.37, 215.7 0.83 M117.61 119.41 C144.69 87.83, 183.81 43.83, 218.6 0.55 M118.31 120.89 C147.45 87.43, 173.35 59.82, 223.18 -1.33 M119.49 122.57 C150.06 90.33, 173.61 52.68, 231.22 -4.31 M121.62 119.79 C150.46 92.79, 172.67 66.17, 227.61 1.35 M125.11 122.38 C157 86.51, 183.82 61.07, 230.05 -1.49 M127.94 122.09 C156.9 88.44, 186.32 54.98, 231.9 0.05 M129.32 122.03 C155.79 92.93, 178.84 66.82, 235.52 3.13 M133.3 122.06 C160.02 88.09, 190.64 59.73, 237.19 -1.26 M140.44 119.16 C175.16 84.63, 209.5 45.94, 240.07 1.98 M139.15 119.54 C179.55 71.92, 221.05 23.96, 241.86 -1.49 M147.15 117.76 C182.22 79.29, 222.26 38.51, 246.28 -2.03 M144.04 119.99 C170.49 88.72, 197.52 60.79, 250.46 -0.09 M147.88 124 C182.56 84.89, 210.04 46.56, 251.6 -2.94 M147.79 120.55 C180.13 87.66, 206.7 53.45, 255.29 -0.32 M157.65 118.12 C179.16 97.01, 201.54 65.82, 259.2 0.16 M155.2 122.09 C176.22 98.04, 194.98 73.83, 258.04 0.93 M157.5 122.32 C192 81.54, 225.83 42.73, 263.37 3.01 M160.25 119.31 C192.81 89.14, 218.59 54.94, 264.03 1.08 M165.32 124.62 C202.15 85.24, 231.8 43.93, 268.4 4.05 M165.75 120.76 C207.76 73.1, 249.01 24.19, 271.83 2.04 M169.22 122.74 C194.55 93.72, 215.93 63.87, 273.94 -3.71 M171.55 118.93 C196.44 90.66, 221.98 62.58, 275.52 -1.85 M174.45 119.98 C219.4 77.46, 258 25.37, 277.87 -0.8 M174.24 122.3 C203.82 86.98, 234.36 53.42, 282.31 -1.63 M184.74 121.07 C207.5 91.32, 227.48 70.26, 285.69 2.55 M183.3 121.41 C211.76 87.31, 242.81 48.73, 286.79 -1.77 M185.17 120.08 C214.22 87.1, 235.8 60.95, 289.38 -1.65 M184.82 120.93 C214.28 85.61, 243.88 50.79, 292.55 1.97 M195.58 120.29 C229.75 81.61, 266.6 36.11, 300.78 -3.36 M193.69 121.69 C221.24 86.6, 250.99 47.93, 298.45 -1.44 M197.41 122.03 C221.4 93.41, 247.44 61.42, 298.5 1.43 M197.25 120.78 C229.52 78.65, 265.47 37.16, 300.22 -0.21 M203.09 118.58 C244.1 82.6, 277.19 39.09, 309.22 2.56 M203.52 121.58 C236.4 80.67, 272.23 36.7, 308.72 0.29 M206.92 124.08 C240.82 79.91, 277.89 40.43, 314.64 -0.44 M208.87 121.87 C241.31 82.12, 274.4 43.45, 311.57 -0.32 M214.41 121.32 C245.98 89.8, 272.11 54.5, 316.81 1.53 M214.18 119.82 C243.29 86.08, 277.03 49.76, 319.4 -1.5 M217.24 121.7 C247.87 87.96, 270.75 60.2, 325.02 3.03 M216.59 122.13 C245.71 86.16, 275.75 54.02, 323.47 0.4 M221.86 121.8 C259.39 81.47, 296.93 36.52, 325.17 -0.06 M224.98 122.79 C250.89 92.78, 277.77 64.38, 329.91 0.13 M227.74 119.53 C259.19 91.19, 285.46 53.1, 330.65 -2.65 M226.96 119.4 C252.14 95.87, 273.99 71.91, 333.37 1.63 M233.5 118.27 C267.1 80.34, 295.61 49.36, 335.72 1.39 M233.82 119.53 C257.98 93.08, 283.33 62.4, 339.23 -1.93 M237.61 119.42 C263.58 93.03, 291.75 60.18, 342.37 3.18 M238.09 121.44 C261.54 94.63, 282.57 69.83, 345.29 1.94 M241.28 122.39 C281.49 77.07, 320.16 32.62, 353.06 3.39 M243.2 120.25 C280.99 78.13, 318.42 33.61, 351.3 1.84 M249.84 124.38 C284.26 80.92, 318.41 36.67, 352.84 0.4 M249.69 119.9 C289.02 76.81, 327.16 35.11, 355.89 0.8 M251.6 120.3 C295.68 78.6, 336.03 30.52, 359.55 -1.59 M256.89 119.29 C280.5 94.99, 305.4 65.26, 359.61 0.62 M259.24 118.63 C288.07 90.33, 319.47 58.24, 359.27 2.1 M261.08 120.32 C294.17 84.77, 322.81 52.78, 359.15 6.65 M264.67 117.29 C305.11 80.21, 339.3 37.13, 360.91 10.41 M265.24 121.94 C296.98 86.58, 328.29 50.02, 358.79 13.83 M272.42 119.55 C300.8 84.6, 337.22 42.84, 361.26 15.27 M273.16 120.19 C307.06 83.18, 337.49 44.72, 358.22 19.54 M278.51 117.86 C301.79 94.57, 325.65 61.29, 360.32 27.66 M275.2 122.34 C301.88 92.54, 325.31 62.31, 360.7 25.9 M279.81 117.74 C310.1 90.39, 336.33 59.26, 359.49 33.79 M282.42 118.86 C304.57 95.31, 326.3 71.6, 362.09 30.11 M284.95 121.68 C300.16 97.38, 323.85 78.42, 362.27 35.68 M288.31 121.58 C318.6 85.98, 347.17 52.57, 360.32 37.21 M291.66 120.97 C313.17 98.45, 328.52 82.1, 361.17 43.04 M290.95 119.63 C311.41 98.4, 331.36 78.51, 361.11 42.22 M297.66 119.62 C318.45 90.45, 348.8 59.53, 362.4 49.93 M298.71 121.63 C312.74 106.18, 327.15 88.91, 359.53 50.85 M302.03 118.19 C311.61 104, 327.48 92.99, 360.03 54.82 M304.43 119.67 C321.84 98.4, 344.34 74.47, 360.9 53.89 M308.08 121.73 C325.47 103.75, 340.68 83.08, 362.16 60.8 M307.13 119.39 C320.84 107.69, 335.52 91.5, 359.81 59.51 M316.77 123.57 C329.37 101.3, 345.72 79.71, 363.6 64.12 M314.15 120.07 C326.52 104.07, 339.08 87.73, 359.64 68.04 M321.5 121.26 C330.38 112.89, 340 98.28, 360.8 74.13 M318.89 120.65 C331.45 109.86, 340.4 94.58, 360.24 72.07 M325.58 124.42 C331.34 111.66, 337.71 101.63, 356.55 77.87 M322.97 119.83 C336.42 104.58, 351.83 91.96, 361.48 79.24 M329.01 122.63 C339.11 114.91, 341.23 105.03, 362.09 88.2 M329.91 122.11 C341.55 106.6, 351.4 95.43, 362.17 84.56 M337.28 118.03 C338.88 114.78, 349.26 101.73, 363.34 91.93 M334.7 122.6 C342.59 110.98, 354.75 98.61, 361.11 92.73 M343.49 121.46 C350.5 113.14, 354.51 102.74, 361.57 98.46 M340.7 121.36 C346.83 116, 350.63 106.85, 358.53 98.91 M346.5 120.6 C346.37 115.97, 357.56 112.18, 360.28 107.61 M346.7 119.7 C348.54 114.62, 355.03 111.48, 361.85 102.88 M348.61 123.42 C352.8 116.03, 353.42 115.12, 358.56 110.28 M350.5 119.49 C352.17 116.73, 355.05 114.27, 359.42 109.87 M356.46 120.66 C356.9 118.74, 358.06 117.92, 361.01 116.14 M355.87 120.94 C357.54 119.18, 358.65 116.99, 360.35 115.99" stroke="#12b886" stroke-width="0.5" fill="none"></path><path d="M1.7 0.38 C138.85 -3.83, 275.76 -1.61, 359.66 -0.59 M0.16 0.51 C99.4 -0.48, 199.81 -1.99, 360.87 1.24 M363.77 3.01 C358.83 40.56, 361.2 74.57, 363.42 123.99 M359.14 -1.75 C360.66 25.73, 362.08 50.5, 360 118.5 M359.03 120.76 C274.24 114.72, 190.56 114.47, 0.78 121.51 M360.27 120.44 C245.43 120.27, 130.99 119.34, 0.86 121.04 M-1.68 121.11 C5.46 77.52, 0.86 34.98, -3.67 -2.92 M-1.33 120.88 C-2.43 76.62, -0.89 31.91, 1.06 0.2" stroke="#000000" stroke-width="1" fill="none"></path></g><g transform="translate(190 50) rotate(0 103.5 20)"><text x="0" y="28" font-family="Virgil, Segoe UI Emoji" font-size="31.764705882352942px" fill="#000000" text-anchor="start" style="white-space: pre;" direction="ltr">orchestration</text></g><g stroke-linecap="round"><g transform="translate(169.20389537672963 150) rotate(0 -0.2497017962348309 30.669492710251376)"><path d="M0.33 0.97 C0.56 10.98, 0.39 49.93, 0.41 59.59 M-0.95 0.43 C-0.79 10.66, -0.62 51.04, -0.51 60.91" stroke="#000000" stroke-width="1" fill="none"></path></g><g transform="translate(169.20389537672963 150) rotate(0 -0.2497017962348309 30.669492710251376)"><path d="M-9.37 32.91 C-9.5 39.09, -8.37 43.57, 0.83 62.17 M-11.44 33.13 C-7.46 41.85, -3.85 51.06, 0.3 61.45" stroke="#000000" stroke-width="1" fill="none"></path></g><g transform="translate(169.20389537672963 150) rotate(0 -0.2497017962348309 30.669492710251376)"><path d="M11.15 32.75 C6.55 39.03, 3.21 43.53, 0.83 62.17 M9.08 32.97 C6.41 41.83, 3.37 51.1, 0.3 61.45" stroke="#000000" stroke-width="1" fill="none"></path></g></g><g stroke-linecap="round" transform="translate(110 230) rotate(0 180 60)"><path d="M0 0 C0 0, 0 0, 0 0 M0 0 C0 0, 0 0, 0 0 M-0.27 7.32 C0.18 4.57, 2.07 2, 4.46 -0.37 M0 7.16 C1.76 5.53, 2.87 3.72, 4.79 0 M0.85 10.84 C5.9 10.74, 9.64 5.88, 11.43 -2.6 M-0.68 11.4 C2.87 5.72, 8.6 1.65, 11.93 0.94 M-0.71 19.97 C2.75 13.85, 10.32 13.77, 12.61 1.61 M-0.82 16.47 C4.86 11.54, 6.97 10.18, 16.79 0.08 M1.09 20.51 C6.57 13.88, 15.41 13.43, 22.11 3.89 M-0.04 24.01 C9.21 14.82, 17.24 5.44, 19.51 -1.54 M1.6 32.17 C7.43 19.42, 17.56 13.08, 29.1 4 M-0.14 31.33 C8.7 19.51, 15.42 10.22, 25.49 0.59 M3.05 34.32 C8.52 24.25, 16.52 14.24, 35.12 2.08 M-0.98 35.06 C12.3 23.33, 25.37 5.71, 32.71 -0.45 M-1.4 44.09 C9.29 27.96, 28.5 13.08, 38.91 4.15 M1.38 42.19 C6.74 33.09, 17.91 22.91, 36.9 2.22 M0.26 46.7 C16.88 32.56, 28.31 20.89, 43.53 -3.8 M-1.23 47.24 C15.61 29.68, 30.22 11.65, 40.84 0.21 M-2.62 58.35 C19.34 35.02, 35.33 20.69, 49 -1.65 M-0.41 55.96 C13.02 40.08, 24.66 22.44, 47.18 -1.21 M-2.73 60.4 C18.08 46.32, 34.39 28.93, 51.39 -1.07 M1.61 62.25 C12.36 45.63, 25.51 31.06, 51.78 -0.17 M-0.38 70.15 C17.58 52.49, 28.57 38.47, 59.51 0.67 M0.61 67.88 C22.42 43.39, 42.23 15.72, 56.44 -1.27 M0.47 71.28 C26.56 43.92, 48.51 16.32, 61.96 2.76 M-1.49 71.63 C23.72 47.28, 47.12 18.32, 62.32 -0.63 M0.1 76.22 C22.58 49.36, 54.74 21.15, 67.79 -0.98 M1.42 80.54 C18.14 59.25, 33.93 37.28, 70.67 -0.96 M-2.54 88.98 C25.66 57.53, 47.05 33.89, 73.64 0 M-1.67 83.52 C25.48 52.39, 53.06 23.36, 76.17 -0.62 M2.85 91.35 C28.52 59.17, 64.15 26.15, 80.35 -0.89 M-0.07 90.37 C24.34 59.56, 49.63 33.39, 79.77 -0.68 M0.34 101.72 C27.87 62.22, 62.33 25.2, 84.07 2.76 M1.21 97.4 C34.3 60.7, 63.89 24.96, 85.94 -1.98 M3.73 101.44 C19.9 79.47, 34.56 58.83, 92.91 -3.53 M-0.38 102.65 C29.2 70.97, 58.85 35.32, 91.55 -0.21 M-3.6 109.26 C23.89 73.35, 59.18 44.25, 94.04 -1.02 M-0.87 111.08 C16.06 87.21, 37.89 64.07, 95.13 1.03 M1.8 116.14 C18.62 92.28, 37.26 64.42, 102.36 -3.58 M-1.12 114.25 C37.33 80.41, 69.17 38.2, 101.72 -0.78 M-3.23 122.68 C31.89 87.73, 59.26 50.54, 103.55 -3.6 M-1.32 122.49 C33.93 86.7, 65.85 49.11, 108.17 -0.24 M9.21 118.17 C35.21 87.19, 60.58 56.31, 110.78 2.13 M6.92 120.84 C46.36 75.53, 85.98 29.44, 111.92 1 M10.97 124.34 C42.43 85.74, 77.6 48.17, 115.12 3.33 M9.56 119.57 C40.19 86.51, 69.52 52.08, 115.71 1.89 M18.07 122.34 C58.84 74.17, 96.95 33.73, 121.46 2.55 M16.61 121.99 C55.23 74.69, 96.57 32.1, 123.66 -0.87 M22.7 120.24 C66.22 76.72, 102.72 28.94, 124.42 -2.38 M22.31 122.74 C53.09 81.23, 86.88 39.77, 127.32 -1.57 M24.4 119.05 C62.01 77.93, 95.29 40.62, 134.84 0.46 M26.47 122.64 C53.35 90.97, 76.81 65.98, 132.38 0.16 M30.66 118.93 C69.48 81.41, 100.79 40.91, 136.36 -0.78 M31.25 121.71 C57.59 95.42, 77.65 69.8, 137.45 2.27 M40.02 117.24 C66.13 88.17, 85.43 65.36, 144.58 0.44 M38.51 122.03 C66.96 86.4, 95.24 52.71, 141.41 1.26 M42.74 122.73 C79.34 80.3, 113.34 47.93, 147.67 -0.88 M42.6 120.76 C74.65 83.49, 106.79 50.39, 146.17 -0.88 M51.9 121.64 C85.47 78.18, 128.6 38.32, 157.51 -3.11 M47.66 121 C82.97 83.28, 118.93 42.05, 152.02 0.21 M56.03 123.8 C91.14 72.63, 135.83 25.32, 158.29 4.12 M52.47 120.79 C79.55 86.85, 110.28 50.64, 160.42 -1.72 M58.23 120.8 C93.65 86.79, 117.41 54.52, 165.66 2.03 M59.73 119.98 C99.5 76.63, 134.55 35.73, 165.34 1.34 M60.81 124.1 C89.98 86.63, 120.81 54.14, 167.33 0.84 M64.89 121.26 C95.33 80.9, 131.92 42.83, 168.05 -1.34 M72.38 123.11 C105.83 71.97, 143.48 30.06, 174.22 1.88 M69.46 121 C91.64 93.82, 113.57 67.43, 176.45 1.62 M76.53 123.4 C113.14 71.9, 158.69 24.88, 177.09 -0.29 M73.8 122.27 C100.41 91.92, 129.51 59.73, 179.84 -1.25 M78.9 120.74 C114.15 85.82, 139.43 50.31, 189.62 0.27 M82.48 121.69 C121.51 78.43, 156.88 33.95, 184.29 0.58 M83.84 123.29 C113.53 79.48, 151.83 46.69, 189.07 -1.02 M85.04 122.46 C104.77 95.99, 127.57 69.16, 191.43 -1.36 M93.53 117.68 C124.82 79.14, 156.46 41.39, 199.41 -1.14 M93.34 121.24 C127.24 82.62, 157.26 44.91, 197.75 -1.64 M92.58 123.17 C120.22 98.56, 140.46 70.96, 199.94 -3.3 M94.36 121.11 C133.39 76.33, 174.19 31.43, 201.42 2.03 M103.19 117.74 C121.18 96.72, 147.91 66.4, 208.39 1.11 M103.49 118.48 C142.15 75.17, 182.01 29.29, 205.61 1.69 M105.76 124.25 C131.38 90.38, 162.2 57.7, 213.57 2.73 M105.4 120.07 C129.07 90.11, 153.43 62.83, 213.28 -1.83 M109.35 121.29 C143.52 87.15, 180.79 42.11, 218.5 0.29 M110.63 122.56 C144.44 81.48, 177.4 44.38, 218.54 -2.1 M115.61 117.55 C138.89 95.31, 157.12 70.9, 221.02 2.77 M115.72 121.79 C154.56 77.1, 190.88 34.81, 221.4 -0.05 M118.63 118.25 C154.28 87.04, 179.6 57.11, 224.91 -0.51 M121.32 119.97 C154 82.12, 188.17 42.42, 227.14 0.89 M131.51 119.92 C150.54 93.82, 175.48 62.95, 236.52 2.3 M126.8 119.31 C165.4 79.75, 202.09 35.7, 233.07 1.82 M134.86 120.62 C170.31 73.75, 212.29 34.34, 235.27 0.37 M133.09 121.04 C172.54 75.87, 213.1 28.99, 239.25 1.95 M136.05 122 C171.16 89, 202.3 49.52, 245.51 -1.38 M138 122.27 C177.31 74.39, 213.37 32.73, 242.5 1.85 M141.72 123.46 C178.39 86.01, 210.02 48.64, 252.44 4.11 M143.01 122.97 C186.48 72.42, 226.51 27.63, 248.58 0.65 M153 124.25 C177.85 88.32, 215.17 47.31, 256.6 0.86 M148.61 118.9 C187.6 76.42, 225.73 33.76, 252.78 -0.31 M154.07 117.63 C181.99 93.54, 203.6 64.81, 258.46 4.02 M153.06 120.53 C191.81 79.07, 229.52 31.5, 260.78 -0.54 M163.33 116.95 C185.04 85.51, 219.74 59.77, 265.59 1.95 M159.79 122.01 C187.6 87.16, 213.85 58.08, 265.93 -1.42 M165.97 117.81 C204.06 79.82, 247.52 31.64, 269.23 2.41 M164.13 120.09 C194.93 86.69, 224.23 52.64, 270.08 -1.33 M173.17 124.18 C203.62 87.36, 227.38 59.87, 275.47 -1.37 M172.66 119.03 C212.37 74.55, 252.24 28.71, 276.87 -0.64 M178.66 118.51 C213.31 79.92, 256.57 36.5, 281.84 -0.55 M174.01 121.61 C217.21 75.26, 258.57 27.34, 280.59 -0.83 M177.88 119.85 C214.32 82.45, 245.08 51.05, 284.43 3.45 M182.19 121.98 C223.2 73.12, 262.23 25.17, 287.43 -1.53 M188.57 122.02 C223.74 86.14, 252.78 46.24, 294.55 -2.91 M187.39 120.66 C221.74 80.82, 253.58 43.91, 292.34 0.43 M189.96 119.66 C216.64 92.37, 238.83 66.36, 297.83 0.79 M191.3 121.45 C234.76 71.6, 274.71 26.35, 296.33 -2.07 M199.32 118.46 C230.91 74.11, 273.3 33.58, 302.84 3.11 M197.9 122.38 C219.58 96.17, 242.14 66.46, 303.27 -1.47 M203.13 121.15 C233.11 88.6, 257.42 57.15, 308.22 -1.18 M200.79 120.64 C241.27 73.46, 279.67 31.32, 309.21 -0.64 M209.7 121.76 C236.53 85.52, 267.41 48.08, 311.34 3.09 M206.03 119.52 C242.68 77.76, 281.34 34.1, 311.21 0.13 M212.28 123.64 C237.53 96, 260.16 64.84, 315.35 1.54 M211.38 121.34 C236.18 92.24, 259.51 66.8, 316.62 -2.02 M217.71 117.67 C253.04 81.09, 286.62 40.61, 321.89 -3.57 M217.2 122.42 C254.62 79.32, 293.82 35.13, 323.91 0.5 M224.85 125.05 C261.58 77.19, 292.24 36.81, 330.15 -3.25 M225.04 122.71 C255.84 88.68, 286.28 51.57, 328 0.6 M232.53 123.73 C268.53 78.77, 304.11 30.06, 337.52 0.35 M227.75 121.01 C262.54 86.93, 291.12 49.28, 333.03 1.49 M235.42 122.81 C258.83 91.11, 282.25 62.44, 338.72 0.07 M233.6 120.2 C272.8 72, 314.87 27.26, 337.71 -0.39 M238.52 121.33 C271.96 80.67, 303.47 42.04, 342.42 -2.12 M238.9 118.82 C270.73 82.48, 302.8 47.55, 344.12 1.56 M241.79 122.47 C273.95 87.52, 296.36 57.21, 345.72 3.69 M244.85 120.14 C273.49 88.72, 301.8 54.23, 350.36 -0.23 M247.25 123.64 C294.13 77.48, 327.08 29.07, 354.01 -2.17 M250.8 118.98 C284.82 81.07, 318.15 45.66, 354.65 1.74 M251.61 122.61 C285.68 88.7, 313.08 54, 356.95 1.35 M255.11 122.71 C288.8 85.14, 321.92 44.64, 361.43 1.16 M261.44 123.65 C295.67 82.38, 321.04 46.97, 357.62 4.92 M260.47 122.18 C292.28 83.49, 323.52 50.33, 358.74 5.7 M269.72 119.64 C289.26 94.35, 314.94 59.38, 360.94 8.91 M266.65 120.66 C285.83 98.08, 303.9 78.59, 360.83 13.79 M271.03 122.17 C288.92 97.46, 311.09 75.4, 360.36 20.34 M271.88 120.75 C296.15 89.45, 322.08 60.46, 359.02 18.44 M278.13 119.75 C300.51 98.18, 320.54 71.21, 359.04 21.19 M277.61 121.36 C296.23 94.74, 321.37 71.75, 361.06 24.36 M281.13 123.82 C307.82 83.78, 345.51 49.8, 357.75 26.83 M281.87 120.59 C302.66 99.77, 319.04 77.18, 359.22 29.22 M288.07 118.97 C314.56 88.36, 343.51 58.41, 361.32 36.85 M288.05 120.74 C313.26 88.02, 341.22 57.55, 358.98 35.25 M292.05 117.02 C320.32 92.95, 338.68 65.42, 363.29 41.23 M294.22 119.18 C313.75 98.93, 333.17 75.04, 359.79 42.23 M295.91 123.16 C312.4 107.53, 327.74 89.04, 360.36 51.16 M297.94 121.35 C320.82 94.31, 343.55 65.17, 359.75 51.16 M303.29 118.03 C320.9 96.38, 341.53 75.4, 364.31 53.44 M301.58 119.63 C322.3 99.93, 337.22 80.48, 359.72 53.47 M311.26 119.94 C315.41 111.27, 332.2 94.09, 361.9 64.9 M309.14 122.33 C327.59 99.07, 344.55 79.77, 361.38 62.16 M317.5 118.89 C324.47 112.01, 334.13 101.97, 357.34 63.17 M315.54 120.6 C333.69 99.75, 350.08 79.43, 361.91 65.54 M320.88 122.78 C332.21 102.31, 348.9 93.53, 360.9 76.94 M319.45 121.4 C330.31 105.6, 343.12 93.64, 360.8 74.14 M320.58 123.48 C337.57 107.53, 349.02 92.2, 359.42 76.71 M324.58 122.39 C334.7 110, 345.65 98.12, 358.51 78.41 M332.73 118.97 C334.58 109.53, 346.26 98.16, 364.16 85.22 M328.53 120.9 C335.95 113.99, 343.53 105.41, 358.55 83.86 M332.9 120.23 C338.02 116.49, 345.39 110.65, 358.77 91.87 M335.42 121.61 C340.96 115.55, 346.22 108.74, 359.56 92.35 M339.97 121.58 C346.37 117.02, 354.58 108.57, 361.68 99.48 M339.98 121.73 C347.54 112.09, 354.7 107.99, 360.02 97.65 M344.03 123.12 C351.49 114.88, 351.92 112.15, 362.81 106.56 M345.67 122.22 C350.38 115.73, 357.33 110.52, 359.02 102.5 M349.48 118.49 C353.24 120.96, 354.61 113.4, 361.38 112.89 M351.15 121.22 C353.52 118.75, 356.41 114.34, 360.63 110.2 M354.73 122.21 C356.98 119.14, 358.16 118.69, 359.14 117.22 M355.13 121.45 C358.16 119.76, 359.68 117.33, 360.05 116.55" stroke="#228be6" stroke-width="0.5" fill="none"></path><path d="M1.35 0.25 C121.85 1.44, 240.53 0.06, 362.42 1.36 M0.76 0.95 C101.91 3.16, 203.17 1.21, 359.5 -1.1 M357.6 -1.55 C357.72 44.59, 360.43 81.43, 363.54 121.07 M361.77 0.49 C360.1 40.61, 362.12 79.61, 361.88 119.51 M361.65 120.1 C245.62 124.71, 133.36 122.14, -1.65 119.51 M359.45 119.9 C236.7 118.16, 116.46 118.09, 0.52 120.56 M-1.44 117 C-1.69 86.91, -1.17 52.27, -0.67 -2.29 M-0.14 118.77 C0.22 73.29, 2.39 27.25, -0.1 -0.3" stroke="#000000" stroke-width="1" fill="none"></path></g><g transform="translate(130 270) rotate(0 159 20)"><text x="0" y="28" font-family="Virgil, Segoe UI Emoji" font-size="31.764705882352942px" fill="#000000" text-anchor="start" style="white-space: pre;" direction="ltr">business / connector</text></g><g stroke-linecap="round" transform="translate(110 450) rotate(0 180 60)"><path d="M0 0 C0 0, 0 0, 0 0 M0 0 C0 0, 0 0, 0 0 M-0.41 5.92 C0.14 4.12, 2.08 1.81, 5 -1.24 M0.19 7.06 C1.43 4.09, 2.76 2.49, 5.62 0.41 M2.8 14.87 C5.35 8.78, 4.43 6.9, 11.88 2.91 M-1.32 12.46 C2.02 10.5, 6.44 4.97, 9.06 -0.63 M-0.77 21.47 C7.57 10.34, 10.01 7.39, 15.41 0.9 M-1.9 16.69 C6.35 14.71, 8.35 8.15, 15.18 1.98 M-3.04 27.73 C10.22 17.13, 18.11 12, 23.6 3.13 M0.67 25.12 C6.6 15.23, 10.77 10.07, 22.24 0.91 M-1.79 32.67 C9.54 23.08, 21.3 10.81, 30.06 3.7 M-0.82 29.62 C7 20.66, 15.41 11.73, 25.08 -0.23 M-3.53 36.68 C8.75 25.94, 27 12.15, 33.87 2.15 M0.97 37.82 C6.92 27.81, 17.03 17.73, 30.22 0.03 M-0.64 46.31 C7.48 34.14, 22.91 18.4, 38.66 0.11 M0.55 43.51 C13.68 27.83, 28.84 12.61, 35.15 0.87 M-1.26 50.49 C15.77 34.07, 23.16 20.95, 42.09 -2.86 M-1.46 47.01 C10.26 35.42, 21.92 25.76, 40.52 1.28 M-0.5 57.06 C13 43.14, 18.89 28.23, 50.68 2.65 M1.25 53.93 C10.32 39.46, 23.23 24.89, 45.84 0.16 M2.36 64.7 C14.48 44.46, 23.88 30.31, 53.17 -0.28 M0.31 59.24 C20.8 37.01, 39.62 14.11, 53.65 -1.72 M0.64 67.54 C19.67 47.72, 33.94 29.54, 59.44 -2.97 M0.26 66.12 C17.68 42, 38.03 22.41, 57.22 -1.55 M-1.61 71.27 C19.46 48.28, 42.97 30.16, 65.82 0.68 M1.47 74.19 C14.17 54.88, 28.5 42.16, 64.73 -0.47 M0.55 81.31 C25.53 55.39, 42.08 30.62, 70.05 2.14 M1.13 77.95 C24.93 50.91, 49.79 18.93, 66.94 0.48 M-2.32 87.35 C14.06 63.81, 32.87 47.92, 76.57 -1.97 M-1.21 83.45 C17.89 70.63, 31.28 53.04, 73.44 -1.55 M0.84 95.34 C31.42 59.35, 57.91 25.28, 79.45 2.07 M-1.98 90.47 C25.4 65.57, 47.13 39.85, 80.25 0.85 M2.28 96.02 C27.7 67.55, 54.57 40.67, 83.74 0.93 M-0.02 97.27 C33.31 60.57, 62.06 21.31, 86.07 -0.63 M-2.4 101.08 C34.82 65.24, 67.61 23.08, 88.37 -1.91 M0.35 102.89 C23.76 77.63, 49.89 48.09, 91.97 -1.91 M-4.03 111.3 C22.1 86.66, 40.27 60.87, 99.49 1.75 M0.33 111.54 C23.07 81.37, 50.11 51.16, 97.53 -0.49 M0.74 113.14 C30.32 78.32, 64.16 38.98, 97.38 -3.33 M2.13 115.31 C23.15 88.46, 47.12 60.29, 100.56 0.64 M1.07 121.89 C17.53 92.66, 39.23 71.03, 105.78 -3.94 M1.38 121.57 C20.43 97.92, 41.51 70.97, 105.28 -0.98 M3.86 118.52 C45.42 75.29, 88.16 34.13, 110.83 -2.55 M5.88 119.94 C40.46 81.92, 76.48 41.43, 110.02 0.84 M12.88 123.14 C40.09 85.68, 73.57 50.62, 113.73 3.33 M11.48 120.01 C34.51 96.52, 59.34 72.95, 114.74 -0.31 M15.19 119.74 C53.73 80.42, 87.41 44.5, 124.92 -2.74 M15.46 122.23 C47.02 88.17, 73.97 53.71, 119.99 0.93 M23.49 121.44 C54.67 78.55, 86.74 43.59, 130.24 4.01 M23.54 119.31 C53.1 84.28, 84.96 46.18, 127.9 -0.03 M25.46 118.25 C53.34 96.37, 75.4 64.41, 131.64 2.13 M26.1 122.26 C51.53 89.26, 76.78 60.31, 131.69 -0.93 M30.64 121.07 C56.55 88.22, 85.74 55.23, 134.05 3.94 M33.88 120.49 C57.14 91.48, 82.94 62.05, 137.36 1.46 M35.82 117.42 C80.21 79.02, 113.28 35.39, 146.78 -0.73 M38.17 119.78 C70.48 79.91, 104.09 43.91, 141.9 -0.68 M39.89 123.48 C74.82 84.88, 101.6 50.16, 146.37 3.45 M42.45 122.48 C73.14 86.59, 99.07 57.12, 146.97 -0.08 M49.24 123.81 C91.52 80.11, 124.3 31.7, 149.98 1.08 M50.65 121.43 C72.8 91.5, 99.32 65.69, 153.05 1.64 M52.61 123.33 C86.18 79.16, 130.58 36.1, 162.23 2.01 M54.77 120.13 C77.34 96.58, 100.85 66.39, 157.18 0.03 M58.49 119.14 C87.38 87.48, 118.03 55.98, 160.65 1.13 M59.12 118.74 C94.76 83.26, 127.44 43.81, 163.12 -0.1 M61.98 120.45 C81.29 95.59, 107.04 73.21, 170.47 2.31 M63.96 122.18 C97.77 82.74, 130.11 46.44, 171.03 1.36 M66.16 120.36 C103.63 76.65, 145.59 30.69, 178.05 2.21 M69.74 122.16 C96.06 88, 127.64 56.01, 175.7 -0.12 M72.98 123.86 C106.58 78.37, 143.69 39.25, 181.73 -1.79 M76.74 121.29 C99.37 93.47, 121.57 64.9, 180.17 0.39 M80.64 119.58 C106.07 91.82, 134.47 59.94, 185.22 -3.73 M81.28 119.06 C120.57 70.39, 161.52 25.04, 185.98 1.27 M82.44 123.77 C111.33 90.61, 136.25 58.02, 192.47 2.78 M87.41 120.01 C111.83 91.33, 138.25 58.67, 190.82 0.5 M88.16 120.1 C127.04 80.4, 166.53 34.88, 193.04 0.46 M91.09 119.69 C131.6 72.1, 172.88 20.61, 194.73 -0.35 M98.96 119.58 C116.55 94.52, 134.75 74.31, 204.98 -3.76 M95.87 120.81 C117.78 97.57, 140.06 71.31, 201.8 2 M104.72 124.41 C135.17 82.83, 174.33 44.71, 204.19 -2.89 M101.12 119.22 C142.77 75.18, 185.11 30.13, 206.33 0.53 M106.97 123.88 C130.09 90.97, 164.18 54.16, 215.33 2.03 M105.63 120.06 C130.78 95.97, 152.39 68.13, 210.54 0.07 M115.53 122.96 C132.8 95.05, 162.12 66.08, 217.16 1.75 M111.25 120.49 C134.99 94.56, 157.76 63.4, 218.74 1.3 M118.72 118.44 C147.38 88.5, 174.78 61.91, 225.43 2.76 M117.77 122.04 C138.29 92.85, 159.53 68.81, 223.03 -1.16 M121.52 119.08 C148.88 92.13, 166.67 71.7, 230.26 3.09 M123.94 120.95 C149.19 92.23, 175.24 63.08, 229.51 1.28 M130.27 122.21 C167.19 77.87, 211.18 30.24, 230.99 0.25 M128.97 120.93 C152.22 93.41, 179.72 67.31, 231.9 1.3 M131.52 121.6 C172.48 78.59, 205.11 43.76, 236.94 -0.22 M134.25 119.27 C164.83 88.73, 196.52 51.91, 237.14 0.43 M141.47 123.34 C159.56 94.02, 184.93 66.92, 241.53 3.47 M137.51 118.83 C164.07 88.83, 192.8 59.22, 242.33 -0.62 M144.79 121.75 C168.51 94.44, 197.99 64.53, 248.45 1.4 M142.52 122.22 C169.28 87.83, 196.06 57.03, 249.7 -1.64 M152.02 123.18 C186.49 77.43, 229.64 30.97, 252.39 0.6 M149.27 119.73 C179.26 89.32, 205.04 58.71, 254.12 -0.11 M154.43 121.96 C185.66 83.38, 221.1 52.26, 261.89 -3.04 M155.66 119.5 C177.63 94.95, 202.35 65.24, 258.85 0.87 M157.41 124.23 C205.6 77.07, 244.19 29.1, 264.72 3.03 M159.7 119.53 C190.13 87.34, 216.64 53.7, 263.66 -1.41 M167.33 123.85 C199.59 82.23, 236.69 43, 266.79 3.94 M165.18 121.74 C191 91.1, 217.3 60.26, 268.55 -1.12 M168.94 118.22 C210 75.56, 243.04 35.67, 273.48 1.29 M171.86 120.04 C215.79 74.16, 255.07 26.5, 273.93 -1.91 M176.21 124.22 C216.79 78.27, 254.77 35.58, 280.54 0.98 M177.18 122.43 C197.59 94.35, 218.67 68.62, 280.31 -0.77 M177.73 122.04 C204.55 92.2, 230.01 72.33, 287.45 1.12 M182.41 118.98 C216.28 79.61, 249.75 37.75, 284.49 -2.05 M187.58 119.07 C222.26 80.18, 257.15 34.75, 288.31 3.91 M186.37 119.99 C224.78 79.17, 260.64 34.5, 291.25 -1.33 M190.7 117.77 C219.77 91.49, 245.72 64.07, 293.21 3.47 M191.59 119.97 C219.55 88.02, 244.51 57.86, 297.52 0.6 M193.79 123.57 C235.01 79.92, 276.55 32.8, 303.1 -2.24 M198.03 119.75 C229.72 80.82, 265.94 36.9, 300.09 1.85 M202.62 120.69 C233.61 82.37, 266.83 47.09, 307.16 0.44 M201.24 118.53 C225.98 98.14, 245.61 71.31, 307.78 1.42 M208.98 120.09 C242.85 77.82, 283.88 38.97, 313.71 -3.26 M206.06 119.95 C230.38 94.98, 255.39 68.5, 313.13 -0.66 M216.02 119.26 C239.86 84.09, 270.94 50.32, 315.52 3.34 M212.79 120.11 C233.72 95.33, 253.6 72.74, 316.62 -1.34 M217.12 118.17 C248.3 85.84, 276.6 54.57, 320.75 0.24 M218.93 121.71 C240.84 93.5, 268.63 63.54, 322.29 1.59 M220.62 119.87 C253.6 79.78, 289.8 36.53, 326.3 -1.35 M224.62 122.79 C261.24 71.84, 304.61 26.89, 329.99 -0.51 M231.98 118.58 C267.84 76.42, 309.49 25.61, 332.67 -3.15 M229.71 119.08 C253.68 89.24, 281.09 59.2, 335.05 0.98 M231.92 123.86 C265.09 77.75, 304.8 41.12, 341.35 0.07 M232.66 120.32 C267.02 86.13, 295.44 53.7, 340.44 -2.02 M237.15 117.22 C266.5 85.88, 294.77 54.89, 345.7 0.35 M238.08 121.02 C270.41 87.85, 299.89 54.79, 344.5 1.79 M243.25 120 C266.94 87.8, 295.72 62.81, 351.66 -2.8 M244.46 120.59 C278.42 83, 311.6 45.41, 348.44 1.87 M254.02 117.22 C273.26 90.53, 293.97 65.12, 355.9 -2.32 M248.3 121.37 C288.87 78.88, 323.74 39.14, 355.33 -1.8 M256.41 117.5 C278.55 92.41, 299.69 70.79, 360 -3.41 M255.83 120.68 C283.33 86.32, 316.7 49.24, 359.04 -0.46 M257.82 116.88 C288.4 80.41, 321.11 47.25, 357.89 7.05 M259.21 120.9 C287.8 86.84, 315.49 55.45, 360.56 6.33 M269.03 118.76 C302.13 79.47, 338.41 31.68, 362.49 10.32 M264.18 121.54 C299.97 82.52, 332.6 43.05, 361.41 10.62 M269.56 121.7 C295.35 92, 323.64 61.2, 358.69 22.53 M270.28 121.27 C298.21 87.33, 328.21 54.52, 361.41 18.95 M278.54 123.37 C305.84 84.88, 331.44 51.79, 362.72 20.73 M274.51 122.04 C307.39 88.21, 336.55 54.44, 360.95 24.71 M280.08 124.35 C300.97 94.87, 319.9 70.24, 360.36 31.1 M283.54 119.07 C305.95 92.48, 325.97 68.45, 359.91 32.4 M286.17 124.09 C311.62 93.98, 336.16 68.27, 359.59 37.45 M285.39 120.97 C311.86 90.58, 337.6 63.91, 361.19 36.44 M294.03 116.7 C316.12 100.52, 330.88 75.28, 357.54 41.23 M293.62 119.77 C319.47 90.89, 344.11 60.99, 358.45 41.26 M300.99 118.88 C315.43 103.57, 330.72 88.3, 361.16 50.03 M299.01 119.01 C316.9 98.56, 338.4 77.44, 359.58 48.07 M301.88 117.79 C322.24 105.69, 336.87 81.91, 357.36 53.81 M301.76 119.77 C314.53 105.2, 326.9 90.2, 361.69 55.22 M311.87 122.91 C327.43 101.28, 350.98 79.14, 359.25 60.96 M307.16 120.75 C325.57 101.25, 343.83 77.61, 360.11 60.51 M315.89 121.88 C335.24 96.23, 346.87 81.94, 358.75 66.93 M313.78 120.34 C331.77 100.91, 347.93 79.67, 361.87 65.93 M315.47 124.49 C336.2 104.85, 350.92 87.57, 361.55 70.16 M317.19 120.68 C332.68 106.2, 346.44 91.54, 359.43 71.83 M326.15 118.4 C332.38 111.83, 335.12 103.89, 363.79 80.62 M326.11 121.7 C335.97 106.55, 343.76 95.13, 360.19 81.65 M328.31 121.15 C338.44 111.65, 353.14 90.98, 358.21 84 M330.09 121.21 C336.77 110.37, 343.36 101.72, 359.43 84.27 M335.91 120.7 C343.21 112.52, 348.03 103.02, 360.35 89.82 M335.08 121.71 C343.41 110.31, 352.59 100.37, 359.37 90.32 M342.67 123.6 C346.7 115.05, 354.14 107.09, 357.2 96.04 M338.39 122.65 C347.04 113.37, 351.99 106.94, 360.59 98.96 M344.19 119.09 C350.48 118.86, 355.94 113.7, 362.14 100.95 M345.63 122.86 C351.26 114.28, 353.48 108.99, 361.79 102.02 M353.52 120.05 C351.16 119.48, 358.3 115.39, 362.53 108.51 M351.83 121.08 C353.48 117.97, 356.69 113.15, 359.52 110.56 M355.12 121.2 C356.92 118.71, 359.13 119.55, 360.02 116.2 M356.32 121.73 C356.65 119.63, 358.32 118.34, 360.98 115.91" stroke="#fab005" stroke-width="0.5" fill="none"></path><path d="M1.38 0.9 C127.13 -1.23, 255.62 -4.13, 357.97 -1.33 M0.76 0.73 C128.54 -2.98, 258.35 -1.86, 359.61 -0.44 M362.59 1.18 C356.51 32.33, 360.14 58.59, 361.59 118.28 M361.6 1.17 C362.19 48.51, 360.1 93.54, 358.01 121.52 M361.25 119.39 C227.22 115.89, 96.6 118.55, -1.68 118.41 M361.01 121.07 C268.6 116.95, 175.85 116.32, -0.84 121.18 M1.85 117.24 C3.95 87.63, -0.49 60.19, -1.36 -0.44 M0 121.57 C2.14 84.73, 1.18 50.68, 1.63 1.81" stroke="#000000" stroke-width="1" fill="none"></path></g><g transform="translate(270 490) rotate(0 24 20)"><text x="0" y="28" font-family="Virgil, Segoe UI Emoji" font-size="31.764705882352942px" fill="#000000" text-anchor="start" style="white-space: pre;" direction="ltr">util</text></g><g stroke-linecap="round"><g transform="translate(170.72715572968445 371.1619601931425) rotate(0 0.5106298940434044 29.499056315738756)"><path d="M-0.47 -1.16 C-0.42 8.7, -0.93 48.93, -0.64 59.1 M1.48 0.84 C1.98 10.84, 1.64 50.12, 1.56 60.16" stroke="#000000" stroke-width="1" fill="none"></path></g><g transform="translate(170.72715572968445 371.1619601931425) rotate(0 0.5106298940434044 29.499056315738756)"><path d="M-10.43 30.26 C-7.81 39.66, -4.35 44.23, 3.01 59.61 M-7.84 30.91 C-6.29 38.31, -3.41 43.78, 2.44 60.98" stroke="#000000" stroke-width="1" fill="none"></path></g><g transform="translate(170.72715572968445 371.1619601931425) rotate(0 0.5106298940434044 29.499056315738756)"><path d="M10.09 30.41 C8.2 39.7, 7.14 44.24, 3.01 59.61 M12.68 31.07 C9.95 38.34, 8.57 43.78, 2.44 60.98" stroke="#000000" stroke-width="1" fill="none"></path></g></g><g transform="translate(190 170) rotate(0 99.5 12.5)"><text x="0" y="18" font-family="Virgil, Segoe UI Emoji" font-size="20px" fill="#000000" text-anchor="start" style="white-space: pre;" direction="ltr">use or/and implement</text></g><g transform="translate(190 390) rotate(0 99.5 12.5)"><text x="0" y="18" font-family="Virgil, Segoe UI Emoji" font-size="20px" fill="#000000" text-anchor="start" style="white-space: pre;" direction="ltr">use or/and implement</text></g><g transform="translate(-210.5 270.5) rotate(270 243 22.5)"><text x="0" y="32" font-family="Virgil, Segoe UI Emoji" font-size="36px" fill="#000000" text-anchor="start" style="white-space: pre;" direction="ltr">dependencies are transitive</text></g></svg>